<svg width="371" height="329" viewBox="0 0 371 329" fill="none" xmlns="http://www.w3.org/2000/svg">
<path opacity="0.5" d="M259.96 557.618V510.573L292.834 543.829L329.679 539.588L333.871 502.315L300.997 469.059H347.501L370.587 439.708L347.501 410.356H300.997L333.871 377.1L329.679 339.827L292.834 335.586L259.96 368.842V321.835L234.011 300.947L194.636 226.214L115.092 211.566L108.332 118.673L26.0547 90.3867L5.60999 64.3983H-40.9309L-8.05678 31.142L-12.2492 -6.13104L-49.0941 -10.3722L-81.9682 22.884V-24.1605L-110.982 -47.5145L-139.997 -24.1605V22.9027L-172.871 -10.3535L-209.716 -6.11243L-213.908 31.1607L-181.034 64.4169H-227.501L-250.587 93.7496L-227.501 123.101H-180.997L-213.871 156.357L-209.679 193.63L-172.834 197.871L-139.96 164.615V211.641L-110.964 234.995L-82.6515 212.202L-86.7331 248.596L-53.859 281.853H-100.344L-123.43 311.204L-100.344 340.556H-53.8405L-86.7146 373.812L-82.5222 411.085L-45.6774 415.326L-12.8032 382.07V429.095L16.211 452.45L45.2252 429.095V382.051L78.1547 415.326L113.836 411.234L91.3228 439.726L114.409 469.078H160.913L128.02 502.334L132.212 539.607L169.057 543.848L201.894 510.573V557.618L230.946 580.972L259.96 557.618ZM296.675 495.309C291.412 487.537 292.612 478.27 293.942 473.113L322.328 501.829C314.128 502.782 301.625 502.502 296.675 495.29V495.309ZM338.987 461.193H298.836C301.533 456.597 307.184 449.18 316.271 447.461C324.822 445.836 333.871 454.635 338.987 461.175V461.193ZM291.079 459.063L271.983 439.726L291.079 420.408C293.924 425.901 301.274 437.111 314.701 439.726C301.274 442.342 293.924 453.571 291.079 459.045V459.063ZM338.987 418.278C333.853 424.817 324.803 433.635 316.289 432.01C307.203 430.291 301.514 422.874 298.855 418.278H338.987ZM322.365 377.623L293.961 406.321C292.649 401.145 291.467 391.86 296.694 384.144C301.625 376.894 314.147 376.652 322.347 377.604L322.365 377.623ZM292.391 347.281C293.333 355.596 293.092 368.281 285.927 373.233C278.244 378.557 269.083 377.343 263.986 375.998L292.391 347.281ZM-2.94099 72.3012C-8.07527 78.8404 -17.1249 87.6589 -25.6389 86.0334C-34.7255 84.3146 -40.4138 76.8973 -43.0733 72.3012H-2.94099ZM-19.5627 31.6465L-47.949 60.3627C-49.2603 55.1874 -50.4423 45.9019 -45.2341 38.1857C-40.3215 30.9178 -27.7628 30.6749 -19.5627 31.6838V31.6465ZM-49.5742 1.30487C-48.6324 9.60022 -48.8909 22.3049 -56.0383 27.2559C-63.7212 32.5806 -72.8816 31.3662 -77.979 30.021L-49.5742 1.30487ZM-143.967 30.0024C-149.083 31.3289 -158.262 32.5246 -165.89 27.2559C-173.037 22.3049 -173.277 9.6189 -172.354 1.30487L-143.967 30.0024ZM-176.712 38.1857C-171.467 45.9579 -172.668 55.2247 -173.979 60.3813L-202.347 31.6838C-194.147 30.6937 -181.588 30.9365 -176.712 38.1857ZM-219.005 72.3012H-178.855C-181.551 76.8973 -187.202 84.3146 -196.289 86.0334C-204.84 87.7336 -213.871 78.8404 -219.005 72.3012ZM-171.172 74.4312L-151.983 93.7496L-171.172 113.068C-174.016 107.613 -181.366 96.3653 -194.811 93.7496C-181.274 91.134 -173.923 79.8867 -171.172 74.4312ZM-218.987 115.217C-213.853 108.678 -204.803 99.859 -196.289 101.484C-187.202 103.203 -181.514 110.621 -178.855 115.217H-218.987ZM-202.365 155.871L-173.979 127.155C-172.668 132.331 -171.486 141.616 -176.712 149.332C-181.606 156.581 -194.147 156.862 -202.365 155.853V155.871ZM-172.354 186.194C-173.296 177.88 -173.055 165.194 -165.908 160.243C-158.244 154.993 -149.009 156.152 -143.967 157.478L-172.354 186.194ZM-49.5558 255.621C-44.2922 263.356 -45.585 272.698 -46.804 277.836L-75.1348 249.101C-66.9901 248.148 -54.4315 248.41 -49.5373 255.64L-49.5558 255.621ZM-91.8489 289.756H-51.6981C-54.3945 294.352 -60.0459 301.769 -69.1325 303.488C-77.6835 305.113 -86.7331 296.295 -91.8489 289.756ZM-43.9413 291.886L-24.8448 311.204L-43.9413 330.616C-46.7855 325.16 -54.136 313.913 -67.5811 311.298C-54.136 308.588 -46.7855 297.36 -43.9413 291.886ZM-91.7566 332.671C-86.6223 326.132 -77.5727 317.314 -69.0586 318.939C-59.9721 320.658 -54.2837 328.075 -51.6243 332.671H-91.7566ZM-75.1348 373.326L-46.7485 344.61C-45.4373 349.785 -44.2553 359.071 -49.4819 366.787C-54.45 374.036 -67.0086 374.279 -75.1348 373.326ZM-45.1972 403.649C-46.1391 395.335 -45.899 382.649 -38.7516 377.698C-31.0687 372.373 -21.9082 373.588 -16.8109 374.933L-45.1972 403.649ZM49.1959 374.933C54.3117 373.606 63.4906 372.41 71.1182 377.679C78.2655 382.63 78.5056 395.335 77.5822 403.63L49.1959 374.933ZM122.904 418.259H163.11C160.414 422.855 154.763 430.273 145.676 431.991C137.088 433.617 128.02 424.817 122.904 418.259ZM170.812 420.389L189.927 439.726L170.83 459.045C167.986 453.589 160.636 442.342 147.19 439.726C160.636 437.111 167.986 425.901 170.83 420.408L170.812 420.389ZM122.923 461.175C128.057 454.635 137.107 445.836 145.621 447.442C154.707 449.161 160.395 456.579 163.055 461.175H122.923ZM139.544 501.829L167.931 473.113C169.242 478.214 170.498 487.555 165.216 495.29C160.303 502.502 147.763 502.801 139.563 501.829H139.544ZM169.556 532.171C168.614 523.857 168.854 511.171 176.02 506.22C183.703 500.895 192.863 502.11 197.961 503.455L169.556 532.171ZM259.96 496.393V469.078H286.961C285.114 474.963 282.491 488.172 290.174 499.643C278.853 491.871 265.796 494.562 259.96 496.393ZM252.166 491.516L236.468 475.635L242.969 469.059H252.203L252.166 491.516ZM252.166 448.545L239.737 461.119H222.21L209.781 448.545V430.758L222.21 418.259H239.774L252.203 430.833L252.166 448.545ZM259.96 438.661L260.939 439.652L259.96 440.642V438.661ZM79.189 277.742C77.8777 272.567 76.6957 263.282 81.9038 255.565C86.798 248.335 99.3382 248.092 107.557 249.045L79.189 277.742ZM74.2209 211.043L45.1882 240.413V193.369L16.1925 169.94L-12.1199 192.734L-8.03831 156.339L-40.9125 123.082H1.87932L74.2209 211.043ZM31.8724 147.277L97.2328 127.921L60.0555 181.524L31.8724 147.277ZM-50.8301 113.124L-69.9267 93.8057L-50.8301 74.4872C-47.9859 79.9427 -40.6354 91.19 -27.1903 93.8057C-40.6354 96.3653 -48.0044 107.613 -50.8301 113.068V113.124ZM-132.092 64.5477V42.1278L-116.394 58.0085L-122.895 64.585L-132.092 64.5477ZM-130.688 72.432L-132.092 73.852V72.432H-130.688ZM-110.964 63.4454L-109.985 64.4356H-111.943L-110.964 63.4454ZM-89.7435 41.997V64.4169H-98.9778L-105.442 57.8404L-89.7435 41.997ZM-110.964 52.2354L-130.06 32.9169C-124.668 30.0397 -113.55 22.6038 -110.964 9.02106C-108.378 22.6224 -97.2971 30.0584 -91.8674 32.9169L-110.964 52.2354ZM-89.7435 72.3012V73.7212L-91.1471 72.3012H-89.7435ZM-89.7435 84.8751V102.68L-102.173 115.254H-119.755L-132.166 102.68V84.9124L-119.737 72.3387H-102.173L-89.7435 84.8751ZM-139.96 94.7585L-140.938 93.7683L-139.96 92.7781V94.7585ZM-4.95406 302.311L7.47531 289.737H25.039L37.4684 302.311V320.097L25.039 332.671H7.45685L-4.97252 320.097L-4.95406 302.311ZM-12.7478 312.194L-13.7267 311.204L-12.7478 310.214V312.194ZM81.8484 366.787C76.5849 359.015 77.7853 349.748 79.1151 344.591L107.501 373.307C99.3567 374.26 86.8165 374.017 81.8484 366.787ZM124.16 332.671H84.0832C86.7796 328.075 92.4309 320.658 101.518 318.939C110.05 317.314 119.1 326.113 124.234 332.671H124.16ZM76.3079 330.616L57.2113 311.298L76.3079 291.886C79.152 297.341 86.5025 308.588 99.9292 311.204C86.5025 313.801 79.152 325.011 76.3079 330.616ZM124.215 289.83C119.081 296.37 110.032 305.188 101.518 303.563C92.2832 301.825 86.7426 294.427 84.0647 289.83H124.215ZM-1.77745 194.546L16.1925 180.085L34.1624 194.546C28.6219 198.731 18.2241 207.923 16.1925 219.002C14.1609 207.867 3.76312 198.693 -1.77745 194.508V194.546ZM21.6961 275.314L37.3945 259.433V281.853H28.1602L21.6961 275.314ZM17.2083 281.853H15.2321L16.211 280.862L17.2083 281.853ZM37.5238 289.737V291.157L36.1201 289.737H37.5238ZM16.3033 269.69L-2.79324 250.371C2.59959 247.494 13.7177 240.058 16.3033 226.475C18.8889 240.077 30.007 247.513 35.3999 250.371L16.3033 269.69ZM37.5238 201.907V242.524C32.9805 239.797 25.6484 234.08 23.9493 224.887C22.2133 216.274 30.9305 207.12 37.3945 201.926L37.5238 201.907ZM75.5322 251.287C67.8492 262.74 70.5087 275.949 72.3186 281.853H45.1882V254.538C51.0243 256.369 64.0816 259.059 75.4029 251.287H75.5322ZM67.5168 289.737L51.8185 305.618L45.3175 299.041V289.7L67.5168 289.737ZM46.2964 311.204L45.3175 312.194V310.195L46.2964 311.204ZM67.3875 332.671H45.2252V323.33L51.7261 316.753L67.3875 332.671ZM37.3945 332.671H35.9908L37.3945 331.27V332.671ZM75.4029 371.121C64.0631 363.349 51.0058 366.039 45.1882 367.87V340.556H72.2078C70.3979 346.459 67.7384 359.668 75.4214 371.121H75.4029ZM37.3945 340.556V362.975L21.6961 347.095L28.1971 340.518L37.3945 340.556ZM16.174 341.546L15.1952 340.556H17.2083L16.174 341.546ZM-4.95406 363.013V340.593H4.28024L10.7812 347.169L-4.95406 363.013ZM16.2664 352.718L35.3629 372.037C29.9701 374.914 18.852 382.35 16.2664 395.933C13.6808 382.331 2.56265 374.895 -2.83018 372.037L16.2664 352.718ZM-4.95406 332.671V331.251L-3.55046 332.671H-4.95406ZM-4.95406 291.176V289.756H-3.55046L-4.95406 291.176ZM-4.95406 281.834V259.414L10.7443 275.295L4.2433 281.871L-4.95406 281.834ZM-12.7478 281.834H-39.8228C-38.5533 277.714 -37.8936 273.426 -37.8651 269.111C-37.7614 262.773 -39.5578 256.552 -43.0179 251.268C-31.6966 259.022 -18.6393 256.331 -12.8032 254.5L-12.7478 281.834ZM-4.95406 242.599V201.982C1.50995 207.176 10.2271 216.331 8.62039 224.962C6.82892 234.154 -0.48465 239.834 -4.95406 242.543V242.599ZM-89.6696 123.157V145.577L-105.368 129.696L-98.867 123.12L-89.6696 123.157ZM-91.0732 115.273L-89.6696 113.853V115.273H-91.0732ZM-110.964 124.091L-111.943 123.101H-109.967L-110.964 124.091ZM-81.9497 123.101H-54.9486C-56.7955 128.986 -59.418 142.195 -51.7351 153.667C-63.0563 145.895 -76.1136 148.585 -81.9497 150.416V123.101ZM-47.949 127.137L-19.5627 155.853C-27.7813 156.806 -40.3215 156.563 -45.2157 149.332C-50.4423 141.616 -49.2787 132.331 -47.949 127.137ZM-16.6816 163.419L-19.2672 186.493L-42.076 189.109C-41.6079 185.867 -41.3672 182.595 -41.3557 179.319C-41.3557 172.649 -42.4269 164.877 -46.4346 158.973C-37.2741 165.363 -23.5335 164.335 -16.6816 163.419ZM-49.5558 186.213L-77.942 157.497C-72.8262 156.17 -63.6473 154.975 -56.0198 160.243C-48.854 165.213 -48.6139 177.918 -49.5742 186.213H-49.5558ZM-91.8489 154.582C-97.2971 157.441 -108.378 164.877 -110.964 178.478C-113.55 164.877 -124.668 157.441 -130.06 154.582L-110.964 135.264L-91.8489 154.582ZM-132.166 145.558V123.138H-122.932L-116.431 129.715L-132.166 145.558ZM-132.166 115.217V113.89L-130.762 115.31L-132.166 115.217ZM-81.9497 92.7968L-80.9709 93.787L-81.9497 94.7772V92.7968ZM-75.4488 99.3733L-59.7504 115.254H-81.9128V105.912L-75.4488 99.3733ZM-2.9225 115.254H-43.0733C-40.3769 110.658 -34.7255 103.241 -25.6389 101.522C-17.0879 99.8591 -8.03831 108.659 -2.9225 115.217V115.254ZM77.5822 218.797C78.5241 227.111 78.284 239.797 71.1182 244.748C63.4352 250.054 54.2748 248.839 49.1775 247.513L77.5822 218.797ZM131.547 293.081L145.842 311.26L131.547 329.439C127.411 323.834 118.324 313.315 107.372 311.26C118.324 309.149 127.411 298.63 131.547 293.044V293.081ZM195.43 434.14L179.732 418.259H201.894V427.601L195.43 434.14ZM201.894 438.717V440.716L200.916 439.726L201.894 438.717ZM218.886 410.375H209.651V387.955L225.35 403.836L218.886 410.375ZM230.909 409.385L231.887 410.375H229.967L230.909 409.385ZM201.894 383.06V410.375H174.93C176.2 406.255 176.859 401.967 176.888 397.652C176.986 391.312 175.183 385.091 171.717 379.809C183.056 387.581 196.114 384.797 201.894 383.06ZM211.129 418.278L209.725 419.698V418.278H211.129ZM167.949 406.358L139.563 377.642C147.781 376.689 160.322 376.932 165.216 384.181C170.498 391.916 169.279 401.183 167.949 406.339V406.358ZM136.663 370.075L139.249 347.001L162.058 344.386C161.079 351.317 160.211 365.236 166.453 374.54C157.293 368.113 143.515 369.047 136.682 370.056L136.663 370.075ZM169.556 347.3L197.942 376.016C192.826 377.343 183.647 378.539 176.02 373.27C168.873 368.281 168.651 355.577 169.556 347.281V347.3ZM211.849 378.931C217.242 376.054 228.36 368.618 230.946 355.016C233.531 368.618 244.649 376.054 250.042 378.931L230.946 398.212L211.849 378.931ZM252.166 387.955V410.375H242.932L236.431 403.798L252.166 387.955ZM252.166 418.297V419.716L250.762 418.297H252.166ZM225.442 475.654L209.744 491.535V469.115H218.978L225.442 475.654ZM229.967 469.078H231.943L230.964 470.068L229.967 469.078ZM209.651 461.193V459.773L211.055 461.193H209.651ZM252.129 459.773V461.193H250.725L252.129 459.773ZM230.946 481.222L250.042 500.634C244.649 503.511 233.531 510.947 230.946 524.548C228.36 510.947 217.242 503.511 211.849 500.634L230.946 481.222ZM209.744 549.023V508.406C214.287 511.134 221.619 516.851 223.318 526.043C224.925 534.675 216.208 543.829 209.744 549.023ZM201.894 496.393C196.077 494.524 183.02 491.871 171.68 499.625C175.146 494.343 176.949 488.122 176.851 481.782C176.823 477.467 176.163 473.179 174.893 469.059H201.894V496.393ZM179.732 461.175L195.43 445.294L201.894 451.87V461.212L179.732 461.175ZM160.894 410.375H115L119.1 373.812L86.2255 340.556H132.138L128.02 377.119L160.894 410.375ZM107.852 403.948L85.0435 406.563C85.5116 403.321 85.7523 400.05 85.7638 396.773C85.7638 390.104 84.6926 382.331 80.6849 376.427C89.9192 382.798 103.623 381.864 110.456 380.855L107.852 403.948ZM37.376 379.865V420.501C30.8935 415.307 22.1948 406.152 23.8016 397.521C25.5376 388.273 32.8512 382.574 37.3945 379.865H37.376ZM-4.95406 420.501V379.902C-0.410782 382.63 6.92126 388.347 8.62039 397.539C10.1533 406.152 1.45454 415.307 -4.95406 420.501ZM-12.7478 367.889C-18.5839 366.021 -31.6227 363.368 -42.9625 371.121C-39.4959 365.839 -37.6929 359.618 -37.7913 353.279C-37.8195 348.963 -38.4792 344.676 -39.7489 340.556H-12.7478V367.889ZM-34.9102 332.671L-19.2118 316.79L-12.7109 323.367V332.709L-34.9102 332.671ZM-34.9102 289.7H-12.7478V299.041L-19.2488 305.618L-34.9102 289.7ZM-38.6039 244.654C-45.7882 239.685 -45.9913 226.999 -45.0679 218.685L-16.8294 247.475C-21.9452 248.783 -31.1241 249.998 -38.7516 244.673L-38.6039 244.654ZM-45.5665 207.045L-81.8204 211.211V164.503L-48.9463 197.759L-12.6924 193.593V240.301L-45.5665 207.045ZM-89.6142 202.991C-96.0967 197.797 -104.795 188.642 -103.189 180.01C-101.49 170.818 -94.1575 165.064 -89.6142 162.373V202.991ZM-132.092 202.991V162.467C-127.549 165.194 -120.217 170.911 -118.518 180.104C-117.003 188.623 -125.702 197.853 -132.166 203.047L-132.092 202.991ZM-139.886 150.379C-145.722 148.51 -158.761 145.857 -170.1 153.611C-166.634 148.329 -164.831 142.108 -164.929 135.768C-164.958 131.453 -165.617 127.165 -166.887 123.045H-139.978L-139.886 150.379ZM-162.048 115.161L-146.35 99.2799L-139.849 105.856V115.198L-162.048 115.161ZM-162.048 72.1891H-139.886V81.5308L-146.387 88.1073L-162.048 72.1891ZM-166.85 64.3048C-165.58 60.1846 -164.921 55.8971 -164.892 51.5815C-164.794 45.242 -166.597 39.0212 -170.063 33.739C-158.742 41.5112 -145.685 38.8208 -139.849 36.9712V64.3983L-166.85 64.3048ZM-132.037 24.9766V-15.6222C-125.573 -10.4282 -116.874 -1.29205 -118.462 7.35828C-120.291 16.6252 -127.623 22.3422 -132.166 25.0699L-132.037 24.9766ZM-89.5588 -15.6222V25.0699C-94.1021 22.3422 -101.434 16.6251 -103.133 7.43298C-104.925 -1.18005 -96.226 -10.3348 -89.7435 -15.5287L-89.5588 -15.6222ZM-81.765 36.9899C-75.9474 38.8582 -62.8901 41.5112 -51.5504 33.739C-59.2333 45.1918 -56.5739 58.4196 -54.7639 64.3048H-81.9497L-81.765 36.9899ZM-59.6027 72.2079L-75.301 88.0886L-81.802 81.5121V72.1705L-59.6027 72.2079ZM4.5388 75.4961L18.8335 93.6749L4.5388 111.854C0.40184 106.249 -8.68472 95.73 -19.6366 93.6749C-8.814 91.6945 0.254089 81.1758 4.39105 75.5708L4.5388 75.4961ZM25.1682 98.2897L91.6553 121.363L26.4426 140.607L8.7312 119.103L25.1682 98.2897ZM101.813 135.114L107.354 210.352L81.7007 207.4L65.2267 187.745L101.813 135.114ZM107.871 218.516L110.456 241.59C103.623 240.6 89.8638 239.722 80.6849 246.018C84.6926 240.114 85.7638 232.323 85.7638 225.672C85.7523 222.396 85.5117 219.124 85.0435 215.882L107.871 218.516ZM115.258 252.539L201.894 325.59V368.879L169.02 335.623L133.339 339.733L155.723 311.204L132.637 281.853H86.2255L115.258 252.539ZM144.808 267.261L187.397 237.76L176.315 293.81L144.808 267.261ZM194.507 242.637L226.014 302.423L205.921 318.603L183.297 299.527L194.507 242.637ZM209.781 330.448C216.263 335.642 224.962 344.778 223.355 353.428C221.656 362.62 214.324 368.375 209.781 371.065V330.448ZM252.258 330.448V371.047C247.715 368.319 240.383 362.602 238.684 353.41C236.985 344.778 245.684 335.623 252.166 330.429L252.258 330.448ZM260.052 383.06C265.888 384.928 278.946 387.581 290.267 379.809C282.584 391.281 285.243 404.49 287.053 410.375H259.96L260.052 383.06ZM282.214 418.278L266.516 434.159L260.015 427.582V418.24L282.214 418.278ZM282.214 461.249H260.052V451.908L266.535 445.294L282.214 461.249ZM285.908 506.295C293.056 511.246 293.296 523.95 292.372 532.246L263.986 503.53C269.083 502.147 278.262 500.951 285.89 506.239L285.908 506.295ZM252.185 508.481V549.005C245.702 543.811 237.003 534.656 238.61 526.024C240.291 516.851 247.623 511.134 252.166 508.406L252.185 508.481ZM230.946 570.883L212.976 556.422C218.516 552.237 228.914 543.045 230.946 531.965C232.977 543.045 243.375 552.237 248.916 556.422L230.946 570.883ZM139.267 532.395L136.682 509.321C143.534 510.312 157.293 511.19 166.49 504.875C160.174 514.216 161.116 528.098 162.095 535.03L139.267 532.395ZM101.296 439.726L115.591 421.547C119.728 427.152 128.814 437.671 139.766 439.726C128.796 441.781 119.728 452.3 115.591 457.905L101.296 439.726ZM16.1925 442.379L-1.77745 427.918C3.76312 423.733 14.1609 414.541 16.1925 403.443C18.2241 414.523 28.6219 423.715 34.1624 427.918L16.1925 442.379ZM-75.4857 403.948L-78.0713 380.874C-71.2195 381.864 -57.4603 382.742 -48.263 376.427C-54.5792 385.769 -53.6558 399.651 -52.6585 406.582L-75.4857 403.948ZM-113.457 311.204L-99.144 293.044C-95.007 298.649 -85.9205 309.168 -74.9686 311.223C-85.9205 313.278 -95.007 323.797 -99.144 329.402L-113.457 311.204ZM-75.4857 218.516L-52.677 215.901C-53.6558 222.832 -54.5238 236.751 -48.2814 246.056C-57.5157 239.666 -71.2379 240.619 -78.0898 241.609L-75.4857 218.516ZM-110.945 224.962L-128.915 210.501C-123.375 206.316 -112.977 197.143 -110.945 186.045C-108.914 197.124 -98.5161 206.316 -92.9755 210.501L-110.945 224.962ZM-202.568 186.493L-205.154 163.419C-198.302 164.41 -184.543 165.288 -175.346 158.973C-181.662 168.315 -180.738 182.196 -179.741 189.128L-202.568 186.493ZM-240.614 93.7496L-226.319 75.5708C-222.182 81.1758 -213.095 91.6945 -202.143 93.7496C-213.114 95.8048 -222.182 106.323 -226.319 111.928L-240.614 93.7496ZM-202.568 1.00592L-179.76 -1.60974C-180.738 5.32178 -181.606 19.2408 -175.364 28.5451C-184.598 22.1554 -198.32 23.0895 -205.172 24.0984L-202.568 1.00592ZM-110.964 -37.4442L-92.994 -22.9834C-98.5345 -18.7983 -108.932 -9.6062 -110.964 1.47302C-112.995 -9.62488 -123.393 -18.7983 -128.934 -22.9834L-110.964 -37.4442ZM-19.2857 0.968567L-16.7001 24.0424C-23.5335 23.0522 -37.2926 22.1741 -46.4715 28.4703C-42.4638 22.5664 -41.3927 14.7755 -41.3927 8.12427C-41.404 4.84784 -41.6447 1.57629 -42.1129 -1.66577L-19.2857 0.968567ZM182.022 231.856L138.621 261.918L118.675 245.103L115.812 219.694L182.022 231.856ZM230.909 308.458L248.879 322.919C243.338 327.104 232.94 336.296 230.909 347.394C228.877 336.296 218.479 327.104 212.939 322.919L230.909 308.458ZM322.587 346.87L325.172 369.944C318.339 368.954 304.58 368.076 295.401 374.372C299.409 368.468 300.48 360.677 300.48 354.026C300.469 350.75 300.228 347.478 299.76 344.236L322.587 346.87ZM360.614 439.726L346.319 457.905C342.182 452.3 333.095 441.781 322.144 439.726C333.114 437.671 342.182 427.152 346.319 421.547L360.614 439.726ZM322.624 532.395L299.778 535.086C300.246 531.844 300.487 528.572 300.498 525.296C300.498 518.626 299.427 510.853 295.42 504.95C304.654 511.32 318.358 510.386 325.191 509.377L322.624 532.395Z" fill="#A5E9E9"/>
</svg>
