<svg width="847" height="811" viewBox="0 0 847 811" fill="none" xmlns="http://www.w3.org/2000/svg">
<rect width="847" height="811" fill="#008080"/>
<g filter="url(#filter0_f_1237_8824)">
<circle cx="423.5" cy="405.5" r="168" fill="#074C49"/>
<circle cx="423.5" cy="405.5" r="167.65" stroke="black" stroke-width="0.700679"/>
</g>
<path d="M306.59 592.04C306.59 593.16 306.32 594.21 305.78 595.19C305.26 596.17 304.43 596.96 303.29 597.56C302.17 598.16 300.75 598.46 299.03 598.46H295.52V606.5H291.32V585.56H299.03C300.65 585.56 302.03 585.84 303.17 586.4C304.31 586.96 305.16 587.73 305.72 588.71C306.3 589.69 306.59 590.8 306.59 592.04ZM298.85 595.07C300.01 595.07 300.87 594.81 301.43 594.29C301.99 593.75 302.27 593 302.27 592.04C302.27 590 301.13 588.98 298.85 588.98H295.52V595.07H298.85ZM308.492 598.13C308.492 596.45 308.822 594.96 309.482 593.66C310.162 592.36 311.072 591.36 312.212 590.66C313.372 589.96 314.662 589.61 316.082 589.61C317.322 589.61 318.402 589.86 319.322 590.36C320.262 590.86 321.012 591.49 321.572 592.25V589.88H325.802V606.5H321.572V604.07C321.032 604.85 320.282 605.5 319.322 606.02C318.382 606.52 317.292 606.77 316.052 606.77C314.652 606.77 313.372 606.41 312.212 605.69C311.072 604.97 310.162 603.96 309.482 602.66C308.822 601.34 308.492 599.83 308.492 598.13ZM321.572 598.19C321.572 597.17 321.372 596.3 320.972 595.58C320.572 594.84 320.032 594.28 319.352 593.9C318.672 593.5 317.942 593.3 317.162 593.3C316.382 593.3 315.662 593.49 315.002 593.87C314.342 594.25 313.802 594.81 313.382 595.55C312.982 596.27 312.782 597.13 312.782 598.13C312.782 599.13 312.982 600.01 313.382 600.77C313.802 601.51 314.342 602.08 315.002 602.48C315.682 602.88 316.402 603.08 317.162 603.08C317.942 603.08 318.672 602.89 319.352 602.51C320.032 602.11 320.572 601.55 320.972 600.83C321.372 600.09 321.572 599.21 321.572 598.19ZM336.414 589.61C337.654 589.61 338.744 589.86 339.684 590.36C340.624 590.84 341.364 591.47 341.904 592.25V589.88H346.134V606.62C346.134 608.16 345.824 609.53 345.204 610.73C344.584 611.95 343.654 612.91 342.414 613.61C341.174 614.33 339.674 614.69 337.914 614.69C335.554 614.69 333.614 614.14 332.094 613.04C330.594 611.94 329.744 610.44 329.544 608.54H333.714C333.934 609.3 334.404 609.9 335.124 610.34C335.864 610.8 336.754 611.03 337.794 611.03C339.014 611.03 340.004 610.66 340.764 609.92C341.524 609.2 341.904 608.1 341.904 606.62V604.04C341.364 604.82 340.614 605.47 339.654 605.99C338.714 606.51 337.634 606.77 336.414 606.77C335.014 606.77 333.734 606.41 332.574 605.69C331.414 604.97 330.494 603.96 329.814 602.66C329.154 601.34 328.824 599.83 328.824 598.13C328.824 596.45 329.154 594.96 329.814 593.66C330.494 592.36 331.404 591.36 332.544 590.66C333.704 589.96 334.994 589.61 336.414 589.61ZM341.904 598.19C341.904 597.17 341.704 596.3 341.304 595.58C340.904 594.84 340.364 594.28 339.684 593.9C339.004 593.5 338.274 593.3 337.494 593.3C336.714 593.3 335.994 593.49 335.334 593.87C334.674 594.25 334.134 594.81 333.714 595.55C333.314 596.27 333.114 597.13 333.114 598.13C333.114 599.13 333.314 600.01 333.714 600.77C334.134 601.51 334.674 602.08 335.334 602.48C336.014 602.88 336.734 603.08 337.494 603.08C338.274 603.08 339.004 602.89 339.684 602.51C340.364 602.11 340.904 601.55 341.304 600.83C341.704 600.09 341.904 599.21 341.904 598.19ZM365.686 597.83C365.686 598.43 365.646 598.97 365.566 599.45H353.416C353.516 600.65 353.936 601.59 354.676 602.27C355.416 602.95 356.326 603.29 357.406 603.29C358.966 603.29 360.076 602.62 360.736 601.28H365.266C364.786 602.88 363.866 604.2 362.506 605.24C361.146 606.26 359.476 606.77 357.496 606.77C355.896 606.77 354.456 606.42 353.176 605.72C351.916 605 350.926 603.99 350.206 602.69C349.506 601.39 349.156 599.89 349.156 598.19C349.156 596.47 349.506 594.96 350.206 593.66C350.906 592.36 351.886 591.36 353.146 590.66C354.406 589.96 355.856 589.61 357.496 589.61C359.076 589.61 360.486 589.95 361.726 590.63C362.986 591.31 363.956 592.28 364.636 593.54C365.336 594.78 365.686 596.21 365.686 597.83ZM361.336 596.63C361.316 595.55 360.926 594.69 360.166 594.05C359.406 593.39 358.476 593.06 357.376 593.06C356.336 593.06 355.456 593.38 354.736 594.02C354.036 594.64 353.606 595.51 353.446 596.63H361.336ZM393.81 606.5H389.61L380.1 592.13V606.5H375.9V585.53H380.1L389.61 599.93V585.53H393.81V606.5ZM405.341 606.77C403.741 606.77 402.301 606.42 401.021 605.72C399.741 605 398.731 603.99 397.991 602.69C397.271 601.39 396.911 599.89 396.911 598.19C396.911 596.49 397.281 594.99 398.021 593.69C398.781 592.39 399.811 591.39 401.111 590.69C402.411 589.97 403.861 589.61 405.461 589.61C407.061 589.61 408.511 589.97 409.811 590.69C411.111 591.39 412.131 592.39 412.871 593.69C413.631 594.99 414.011 596.49 414.011 598.19C414.011 599.89 413.621 601.39 412.841 602.69C412.081 603.99 411.041 605 409.721 605.72C408.421 606.42 406.961 606.77 405.341 606.77ZM405.341 603.11C406.101 603.11 406.811 602.93 407.471 602.57C408.151 602.19 408.691 601.63 409.091 600.89C409.491 600.15 409.691 599.25 409.691 598.19C409.691 596.61 409.271 595.4 408.431 594.56C407.611 593.7 406.601 593.27 405.401 593.27C404.201 593.27 403.191 593.7 402.371 594.56C401.571 595.4 401.171 596.61 401.171 598.19C401.171 599.77 401.561 600.99 402.341 601.85C403.141 602.69 404.141 603.11 405.341 603.11ZM421.981 593.33V601.37C421.981 601.93 422.111 602.34 422.371 602.6C422.651 602.84 423.111 602.96 423.751 602.96H425.701V606.5H423.061C419.521 606.5 417.751 604.78 417.751 601.34V593.33H415.771V589.88H417.751V585.77H421.981V589.88H425.701V593.33H421.981ZM448.801 585.56V588.95H440.071V594.32H446.761V597.65H440.071V606.5H435.871V585.56H448.801ZM459.159 606.77C457.559 606.77 456.119 606.42 454.839 605.72C453.559 605 452.549 603.99 451.809 602.69C451.089 601.39 450.729 599.89 450.729 598.19C450.729 596.49 451.099 594.99 451.839 593.69C452.599 592.39 453.629 591.39 454.929 590.69C456.229 589.97 457.679 589.61 459.279 589.61C460.879 589.61 462.329 589.97 463.629 590.69C464.929 591.39 465.949 592.39 466.689 593.69C467.449 594.99 467.829 596.49 467.829 598.19C467.829 599.89 467.439 601.39 466.659 602.69C465.899 603.99 464.859 605 463.539 605.72C462.239 606.42 460.779 606.77 459.159 606.77ZM459.159 603.11C459.919 603.11 460.629 602.93 461.289 602.57C461.969 602.19 462.509 601.63 462.909 600.89C463.309 600.15 463.509 599.25 463.509 598.19C463.509 596.61 463.089 595.4 462.249 594.56C461.429 593.7 460.419 593.27 459.219 593.27C458.019 593.27 457.009 593.7 456.189 594.56C455.389 595.4 454.989 596.61 454.989 598.19C454.989 599.77 455.379 600.99 456.159 601.85C456.959 602.69 457.959 603.11 459.159 603.11ZM486.6 589.88V606.5H482.37V604.4C481.83 605.12 481.12 605.69 480.24 606.11C479.38 606.51 478.44 606.71 477.42 606.71C476.12 606.71 474.97 606.44 473.97 605.9C472.97 605.34 472.18 604.53 471.6 603.47C471.04 602.39 470.76 601.11 470.76 599.63V589.88H474.96V599.03C474.96 600.35 475.29 601.37 475.95 602.09C476.61 602.79 477.51 603.14 478.65 603.14C479.81 603.14 480.72 602.79 481.38 602.09C482.04 601.37 482.37 600.35 482.37 599.03V589.88H486.6ZM499.954 589.64C501.934 589.64 503.534 590.27 504.754 591.53C505.974 592.77 506.584 594.51 506.584 596.75V606.5H502.384V597.32C502.384 596 502.054 594.99 501.394 594.29C500.734 593.57 499.834 593.21 498.694 593.21C497.534 593.21 496.614 593.57 495.934 594.29C495.274 594.99 494.944 596 494.944 597.32V606.5H490.744V589.88H494.944V591.95C495.504 591.23 496.214 590.67 497.074 590.27C497.954 589.85 498.914 589.64 499.954 589.64ZM509.498 598.13C509.498 596.45 509.828 594.96 510.488 593.66C511.168 592.36 512.088 591.36 513.248 590.66C514.408 589.96 515.698 589.61 517.118 589.61C518.198 589.61 519.228 589.85 520.208 590.33C521.188 590.79 521.968 591.41 522.548 592.19V584.3H526.808V606.5H522.548V604.04C522.028 604.86 521.298 605.52 520.358 606.02C519.418 606.52 518.328 606.77 517.088 606.77C515.688 606.77 514.408 606.41 513.248 605.69C512.088 604.97 511.168 603.96 510.488 602.66C509.828 601.34 509.498 599.83 509.498 598.13ZM522.578 598.19C522.578 597.17 522.378 596.3 521.978 595.58C521.578 594.84 521.038 594.28 520.358 593.9C519.678 593.5 518.948 593.3 518.168 593.3C517.388 593.3 516.668 593.49 516.008 593.87C515.348 594.25 514.808 594.81 514.388 595.55C513.988 596.27 513.788 597.13 513.788 598.13C513.788 599.13 513.988 600.01 514.388 600.77C514.808 601.51 515.348 602.08 516.008 602.48C516.688 602.88 517.408 603.08 518.168 603.08C518.948 603.08 519.678 602.89 520.358 602.51C521.038 602.11 521.578 601.55 521.978 600.83C522.378 600.09 522.578 599.21 522.578 598.19Z" fill="white"/>
<path fill-rule="evenodd" clip-rule="evenodd" d="M642.601 563C644.996 550.619 646.25 537.831 646.25 524.75C646.25 414.155 556.595 324.5 446 324.5C335.405 324.5 245.75 414.155 245.75 524.75C245.75 537.831 247.004 550.619 249.399 563H642.601Z" fill="#DCF0F0"/>
<path d="M188.75 573.5H467.75C460.158 533.094 431.772 542.808 418.25 552.5C394.876 528.521 375.292 547.259 368.75 560C332.492 515.51 289.797 546.6 272.75 567.5C236.357 537.814 201.464 559.1 188.75 573.5Z" fill="#99CCCC"/>
<path d="M455.75 573.5H601.25C563.977 485.453 508.452 562.936 509.75 564.5C489.972 539.58 465.354 560.114 455.75 573.5Z" fill="#99CCCC"/>
<path d="M325.25 461H245.75C266.116 413.832 295.959 455.662 295.25 456.5C306.056 443.15 320.002 453.829 325.25 461Z" fill="#99CCCC"/>
<path d="M440.75 465.5C473.887 465.5 500.75 438.637 500.75 405.5C500.75 372.363 473.887 345.5 440.75 345.5C407.613 345.5 380.75 372.363 380.75 405.5C380.75 438.637 407.613 465.5 440.75 465.5Z" stroke="#80C0C0" stroke-width="22.5" stroke-miterlimit="10" stroke-linecap="round" stroke-linejoin="round"/>
<path d="M457.25 422L425.75 390.5" stroke="#80C0C0" stroke-width="22.5" stroke-miterlimit="10" stroke-linecap="round" stroke-linejoin="round"/>
<path d="M455.75 390.5L424.25 422" stroke="#80C0C0" stroke-width="22.5" stroke-miterlimit="10" stroke-linecap="round" stroke-linejoin="round"/>
<path d="M380.75 522.5H499.25C559.545 522.5 571.1 497.9 574.25 468.5L584.75 348.5C588.8 311.9 578.295 282.5 514.25 282.5H365.75C301.705 282.5 291.2 311.9 295.25 348.5L305.75 468.5C308.9 497.9 320.455 522.5 380.75 522.5Z" stroke="#80C0C0" stroke-width="22.5" stroke-miterlimit="10" stroke-linecap="round" stroke-linejoin="round"/>
<path d="M380.75 282.5V270.5C380.75 243.95 380.75 222.5 428.75 222.5H452.75C500.75 222.5 500.75 243.95 500.75 270.5V282.5" stroke="#80C0C0" stroke-width="22.5" stroke-miterlimit="10" stroke-linecap="round" stroke-linejoin="round"/>
<path d="M584.75 357.5C558.984 376.114 530.388 389.114 500.75 396.5" stroke="#80C0C0" stroke-width="22.5" stroke-miterlimit="10" stroke-linecap="round" stroke-linejoin="round"/>
<path d="M299.75 362C324.893 379.029 352.295 391.129 380.75 398" stroke="#80C0C0" stroke-width="22.5" stroke-miterlimit="10" stroke-linecap="round" stroke-linejoin="round"/>
<circle cx="601.25" cy="543.5" r="57" fill="#6EB1B1"/>
<path d="M600.758 516.016C605.75 516.016 609.758 517.384 612.782 520.12C615.854 522.808 617.39 526.528 617.39 531.28C617.39 535.984 615.878 539.584 612.854 542.08C609.83 544.528 605.822 545.752 600.83 545.752L600.542 551.296H591.686L591.326 539.056H594.566C598.742 539.056 601.958 538.504 604.214 537.4C606.47 536.296 607.598 534.28 607.598 531.352C607.598 529.24 606.974 527.56 605.726 526.312C604.526 525.064 602.87 524.44 600.758 524.44C598.55 524.44 596.822 525.04 595.574 526.24C594.374 527.44 593.774 529.096 593.774 531.208H584.27C584.222 528.28 584.846 525.664 586.142 523.36C587.438 521.056 589.334 519.256 591.83 517.96C594.374 516.664 597.35 516.016 600.758 516.016ZM596.078 568.504C594.254 568.504 592.742 567.952 591.542 566.848C590.39 565.696 589.814 564.28 589.814 562.6C589.814 560.92 590.39 559.528 591.542 558.424C592.742 557.272 594.254 556.696 596.078 556.696C597.854 556.696 599.318 557.272 600.47 558.424C601.622 559.528 602.198 560.92 602.198 562.6C602.198 564.28 601.622 565.696 600.47 566.848C599.318 567.952 597.854 568.504 596.078 568.504Z" fill="white"/>
<defs>
<filter id="filter0_f_1237_8824" x="127.201" y="109.201" width="592.598" height="592.598" filterUnits="userSpaceOnUse" color-interpolation-filters="sRGB">
<feFlood flood-opacity="0" result="BackgroundImageFix"/>
<feBlend mode="normal" in="SourceGraphic" in2="BackgroundImageFix" result="shape"/>
<feGaussianBlur stdDeviation="64.1494" result="effect1_foregroundBlur_1237_8824"/>
</filter>
</defs>
</svg>
