<svg width="85" height="85" viewBox="0 0 85 85" fill="none" xmlns="http://www.w3.org/2000/svg">
<circle cx="42.5" cy="42.5" r="42.5" fill="#E6F2F2"/>
<path d="M56.8886 29.9755H30.0787V65.4501H56.8886V29.9755Z" fill="#99CCCC"/>
<path d="M24.6835 36.8102H16.6406V57.8H24.6835V36.8102Z" fill="#99CCCC"/>
<path d="M47.5053 57.7998H39.4623V45.7958C39.4623 43.6139 41.2653 41.8407 43.4838 41.8407C45.7023 41.8407 47.5053 43.6139 47.5053 45.7958V57.7998Z" fill="#66B3B3"/>
<path d="M43.4839 10.2C43.4839 12.1643 27.398 14.8802 27.398 23.3836C27.398 25.381 28.1889 28.2814 30.079 29.9755H43.4839H56.8889C58.7789 28.2814 59.5698 25.381 59.5698 23.3836C59.5698 14.8802 43.4839 12.1643 43.4839 10.2Z" fill="#008080"/>
<path d="M27.398 23.3836C27.398 25.381 28.1889 28.2814 30.079 29.9755H35.4409C34.1541 28.2814 32.5187 25.381 32.5187 23.3836C32.5187 14.8802 43.4839 12.1643 43.4839 10.2C43.4839 12.1643 27.398 14.8802 27.398 23.3836Z" fill="#66B3B3"/>
<path d="M43.4836 10.2C43.4836 12.1643 54.4489 14.8802 54.4489 23.3836C54.4489 25.381 52.8135 28.2814 51.5266 29.9755H56.8886C58.7787 28.2814 59.5696 25.381 59.5696 23.3836C59.5696 14.8802 43.4836 12.1643 43.4836 10.2Z" fill="#006666"/>
<path d="M72.9745 48.4326H56.8886V66.8898H72.9745V48.4326Z" fill="#66B3B3"/>
<path d="M64.9318 32.6122C64.9318 34.181 54.2078 36.3563 54.2078 43.1591C54.2078 44.7543 55.6288 47.0813 56.8888 48.4326H64.9318H72.9748C74.2348 47.0813 75.6557 44.7543 75.6557 43.1591C75.6557 36.3563 64.9318 34.181 64.9318 32.6122Z" fill="#008080"/>
<path d="M54.2078 43.1591C54.2078 44.7543 55.6288 47.0813 56.8888 48.4326H59.5698C58.7119 47.0813 57.6194 44.7543 57.6194 43.1591C57.6194 36.3563 64.9318 34.181 64.9318 32.6122C64.9318 34.181 54.2078 36.3563 54.2078 43.1591Z" fill="#66B3B3"/>
<path d="M64.9316 32.6122C64.9316 34.181 72.244 36.3563 72.244 43.1591C72.244 44.7543 71.1515 47.0813 70.2936 48.4326H72.9746C74.2346 47.0813 75.6556 44.7543 75.6556 43.1591C75.6556 36.3563 64.9316 34.181 64.9316 32.6122Z" fill="#006666"/>
<path d="M20.662 28.8999C20.662 29.6843 15.3 30.772 15.3 34.1734C15.3 34.971 16.0105 36.1311 16.6405 36.8101H20.662H24.6835C25.3135 36.1311 26.024 34.971 26.024 34.1734C26.024 30.772 20.662 29.6843 20.662 28.8999Z" fill="#66B3B3"/>
<path d="M39.1 64.2851H57.8L70.5861 59.7674C73.4496 58.7537 76.5 60.7481 76.5 63.6294C76.5 65.3484 75.3663 66.891 73.6599 67.4915L57.8 73.1H39.1" fill="white"/>
<path d="M40.3855 64.2813H53.5045C55.7046 64.2813 57.6782 62.716 57.7943 60.6326C57.9162 58.4059 56.0529 56.565 53.7367 56.565H40.7221C40.5037 56.565 40.2913 56.4924 40.115 56.3635C33.4358 51.4788 24.1156 51.4788 17.4363 56.3635C17.26 56.4924 17.0476 56.565 16.8292 56.565H1.79184C1.00903 56.565 0.529759 57.4238 0.940745 58.09L9.90699 72.625C10.0891 72.9202 10.4112 73.1 10.7581 73.1H40.3855" fill="white"/>
</svg>
