<svg width="80" height="80" viewBox="0 0 80 80" fill="none" xmlns="http://www.w3.org/2000/svg">
<path d="M40 80C62.0914 80 80 62.0914 80 40C80 17.9086 62.0914 0 40 0C17.9086 0 0 17.9086 0 40C0 62.0914 17.9086 80 40 80Z" fill="#E6F2F2"/>
<g clip-path="url(#clip0_116_11282)">
<path d="M31.2725 11.2H20.3635C17.9635 11.2 16 13.1383 16 15.5075V60.7383C16 59.5535 16.4802 58.4767 17.2873 57.7016C18.0725 56.9048 19.1638 56.4308 20.3635 56.4308H22.8505H35.636L31.2725 11.2Z" fill="#006666"/>
<path d="M64 13.354V54.2772C64 55.4667 63.0229 56.4313 61.818 56.4313H25.0325C23.8276 56.4313 22.8505 55.4667 22.8505 54.2772V13.354C22.851 12.1645 23.8276 11.2 25.0325 11.2H61.818C63.0229 11.2 64 12.1645 64 13.354Z" fill="#008080"/>
<path d="M47.0908 65.0461H57.4544C58.6547 65.0461 59.6364 64.0769 59.6364 62.892V58.5845C59.6364 57.3996 58.6547 56.4304 57.4544 56.4304H20.3634C19.1632 56.4304 18.0725 56.9045 17.2873 57.7012C16.3926 58.5634 15.891 59.7909 16.0218 61.1261C16.2184 63.3877 18.3128 65.0461 20.6038 65.0461H40.5453H47.0908Z" fill="white"/>
<path d="M47.0909 67.1999C43.8181 65.5847 43.8181 65.5847 43.8181 65.5847C43.8181 65.5847 43.8181 65.5847 40.5454 67.1999C40.5454 65.0459 40.5454 62.8923 40.5454 60.7383H47.0909V67.1999Z" fill="#006666"/>
<g clip-path="url(#clip1_116_11282)">
<path d="M44.6251 42.1882C43.328 42.8389 41.8923 43.1999 40.3563 43.1999C39.2096 43.1999 38.1024 42.996 37.0784 42.6239C33.1883 41.211 30.4 37.3514 30.4 32.7999C30.4 28.2484 33.1883 24.3876 37.0784 22.9759C38.1024 22.6038 39.2096 22.3999 40.3563 22.3999C41.8923 22.3999 43.328 22.7542 44.6251 23.4116C41.2523 25.074 38.9312 28.6372 38.9312 32.7999C38.9312 36.9559 41.2523 40.5258 44.6251 42.1882Z" fill="#99CCCC"/>
<path d="M52.4832 32.7531L53.8293 37.0729L50.4352 34.4968L50.3125 34.4043L46.7947 37.0729L48.1365 32.7531L44.8693 30.2706L44.6251 30.0846H48.9653L50.3125 25.7715L50.4352 26.167L51.6533 30.0846H56L52.4832 32.7531Z" fill="#66B3B3"/>
<g opacity="0.2">
<path opacity="0.2" d="M52.4832 32.7531L53.8293 37.0728L50.4352 34.4968V26.167L51.6533 30.0845H56L52.4832 32.7531Z" fill="white"/>
</g>
<g opacity="0.2">
<path opacity="0.2" d="M44.6251 42.1882C43.328 42.8389 41.8923 43.1999 40.3563 43.1999C39.2096 43.1999 38.1024 42.996 37.0784 42.6239V22.9759C38.1024 22.6038 39.2096 22.3999 40.3563 22.3999C41.8923 22.3999 43.328 22.7542 44.6251 23.4116C41.2523 25.074 38.9312 28.6372 38.9312 32.7999C38.9312 36.9559 41.2523 40.5258 44.6251 42.1882Z" fill="white"/>
</g>
<g opacity="0.2">
<path opacity="0.2" d="M44.8693 30.0846V30.2707L44.6251 30.0846H44.8693Z" fill="white"/>
</g>
</g>
</g>
<defs>
<clipPath id="clip0_116_11282">
<rect width="48" height="56" fill="white" transform="translate(16 11.2)"/>
</clipPath>
<clipPath id="clip1_116_11282">
<rect width="25.6" height="20.8" fill="white" transform="translate(30.4 22.3999)"/>
</clipPath>
</defs>
</svg>
