<svg width="80" height="80" viewBox="0 0 80 80" fill="none" xmlns="http://www.w3.org/2000/svg">
<circle cx="40" cy="40" r="40" fill="#E6F2F2"/>
<path d="M63.1031 11.2C63.1031 13.432 64.6235 15.298 66.6667 15.832V16H19.1515C16.5263 16 14.4 13.852 14.4 11.2C14.4 8.54802 16.5263 6.40002 19.1515 6.40002H66.6667V6.56802C64.6235 7.10202 63.1031 8.96802 63.1031 11.2Z" fill="white"/>
<path d="M19.1517 16C16.5264 16 14.4001 13.852 14.4001 11.2V66.4C14.4001 70.378 17.5896 73.6 21.5274 73.6V16H19.1517Z" fill="#006666"/>
<path d="M66.6669 16H21.5275V73.6H66.6669V16Z" fill="#008080"/>
<path d="M55.6078 68.8001H32.5867C31.9274 68.8001 31.3988 68.2601 31.3988 67.6001C31.3988 65.7461 29.6348 64.2401 27.4669 64.2401C26.8077 64.2401 26.2791 63.7001 26.2791 63.0401V26.56C26.2791 25.9 26.8077 25.36 27.4669 25.36C29.6348 25.36 31.3988 23.854 31.3988 22C31.3988 21.34 31.9274 20.8 32.5867 20.8H55.6137C56.273 20.8 56.8016 21.34 56.8016 22C56.8016 23.854 58.5656 25.36 60.7335 25.36C61.3927 25.36 61.9214 25.9 61.9214 26.56V63.0401C61.9214 63.7001 61.3927 64.2401 60.7335 64.2401C58.5656 64.2401 56.8016 65.7461 56.8016 67.6001C56.7957 68.2601 56.267 68.8001 55.6078 68.8001ZM33.632 66.4001H54.5565C55.0792 64.1501 57.0511 62.3741 59.5337 61.9421V27.6581C57.0511 27.226 55.0792 25.456 54.5565 23.2H33.632C33.1094 25.45 31.1375 27.226 28.6548 27.6581V61.9421C31.1375 62.3741 33.1094 64.1501 33.632 66.4001Z" fill="white"/>
<path d="M63.1032 11.2C63.1032 11.62 63.1508 12.016 63.2577 12.4H21.5275C20.8741 12.4 20.3396 11.86 20.3396 11.2C20.3396 10.54 20.8741 10 21.5275 10H63.2577C63.1508 10.384 63.1032 10.78 63.1032 11.2Z" fill="#EDEDED"/>
<path d="M54.2061 47.326C50.7257 50.842 45.0773 50.842 41.5968 47.326C38.1163 43.81 38.1163 38.104 41.5968 34.588C42.3392 33.838 43.1945 33.232 44.0973 32.8C37.5343 32.8 32.2185 38.17 32.2185 44.8C32.2185 51.43 37.5343 56.8 44.0973 56.8C50.6603 56.8 55.9761 51.43 55.9761 44.8C55.5484 45.712 54.9545 46.576 54.2061 47.326Z" fill="#B3D9D9"/>
<path d="M45.368 54.226C39.5117 54.226 34.7602 49.426 34.7602 43.51C34.7602 38.098 38.7337 33.622 43.895 32.902C43.9603 32.866 44.0257 32.83 44.091 32.8C37.528 32.8 32.2122 38.17 32.2122 44.8C32.2122 51.43 37.528 56.8 44.091 56.8C50.654 56.8 55.9698 51.43 55.9698 44.8C55.9401 44.866 55.8985 44.9321 55.8688 44.9981C55.1561 50.212 50.7312 54.226 45.368 54.226Z" fill="#99CCCC"/>
</svg>
