<svg width="31" height="32" viewBox="0 0 31 32" fill="none" xmlns="http://www.w3.org/2000/svg">
<rect x="0.280518" y="0.792114" width="30.4158" height="30.4158" rx="5" fill="#A5E9E9"/>
<path d="M26.6364 4.97956C26.6364 5.83364 27.2182 6.54767 28 6.75201V6.81629H9.81818C8.81364 6.81629 8 5.99435 8 4.97956C8 3.96476 8.81364 3.14282 9.81818 3.14282H28V3.20711C27.2182 3.41144 26.6364 4.12548 26.6364 4.97956Z" fill="white"/>
<path d="M9.81818 6.81629C8.81364 6.81629 8 5.99435 8 4.97955V26.102C8 27.6242 9.22045 28.8571 10.7273 28.8571V6.81629H9.81818Z" fill="#006666"/>
<path d="M28 6.81635H10.7273V28.8572H28V6.81635Z" fill="#008080"/>
<path d="M23.7681 27.0204H14.959C14.7068 27.0204 14.5045 26.8137 14.5045 26.5612C14.5045 25.8517 13.8295 25.2755 13 25.2755C12.7477 25.2755 12.5454 25.0688 12.5454 24.8163V10.8571C12.5454 10.6045 12.7477 10.3979 13 10.3979C13.8295 10.3979 14.5045 9.82164 14.5045 9.1122C14.5045 8.85965 14.7068 8.65302 14.959 8.65302H23.7704C24.0227 8.65302 24.225 8.85965 24.225 9.1122C24.225 9.82164 24.9 10.3979 25.7295 10.3979C25.9818 10.3979 26.184 10.6045 26.184 10.8571V24.8163C26.184 25.0688 25.9818 25.2755 25.7295 25.2755C24.9 25.2755 24.225 25.8517 24.225 26.5612C24.2227 26.8137 24.0204 27.0204 23.7681 27.0204ZM15.359 26.102H23.3659C23.5659 25.241 24.3204 24.5614 25.2704 24.3961V11.2773C24.3204 11.1119 23.5659 10.4346 23.3659 9.57138H15.359C15.159 10.4324 14.4045 11.1119 13.4545 11.2773V24.3961C14.4045 24.5614 15.159 25.241 15.359 26.102Z" fill="white"/>
<path d="M26.6364 4.97951C26.6364 5.14022 26.6546 5.29175 26.6955 5.43869H10.7273C10.4773 5.43869 10.2728 5.23206 10.2728 4.97951C10.2728 4.72696 10.4773 4.52032 10.7273 4.52032H26.6955C26.6546 4.66726 26.6364 4.81879 26.6364 4.97951Z" fill="#EDEDED"/>
<path d="M23.2318 18.8033C21.9 20.1487 19.7386 20.1487 18.4068 18.8033C17.075 17.4579 17.075 15.2745 18.4068 13.9291C18.6909 13.6421 19.0182 13.4102 19.3636 13.2449C16.8523 13.2449 14.8182 15.2997 14.8182 17.8367C14.8182 20.3737 16.8523 22.4285 19.3636 22.4285C21.875 22.4285 23.9091 20.3737 23.9091 17.8367C23.7455 18.1857 23.5182 18.5163 23.2318 18.8033Z" fill="#B3D9D9"/>
<path d="M19.85 21.4436C17.6091 21.4436 15.7909 19.6069 15.7909 17.3431C15.7909 15.2722 17.3114 13.5594 19.2864 13.2839C19.3114 13.2701 19.3364 13.2564 19.3614 13.2449C16.85 13.2449 14.8159 15.2997 14.8159 17.8367C14.8159 20.3737 16.85 22.4285 19.3614 22.4285C21.8727 22.4285 23.9068 20.3737 23.9068 17.8367C23.8955 17.862 23.8796 17.8872 23.8682 17.9125C23.5955 19.9076 21.9023 21.4436 19.85 21.4436Z" fill="#99CCCC"/>
</svg>
