<svg width="80" height="80" viewBox="0 0 80 80" fill="none" xmlns="http://www.w3.org/2000/svg">
<circle cx="40" cy="40" r="40" fill="#E6F2F2"/>
<path d="M46.1905 19.4203L39.2076 26.7028L32.2123 19.4203C27.145 14.7626 34.1156 6.86253 39.2076 12.1636C39.6533 11.6342 40.1986 11.2057 40.8097 10.9046C41.4209 10.6034 42.0849 10.4359 42.7606 10.4125C43.4364 10.3891 44.1096 10.5102 44.7387 10.7685C45.3677 11.0267 45.9391 11.4165 46.4177 11.9138C46.8962 12.4111 47.2717 13.0053 47.5208 13.6597C47.77 14.3141 47.8876 15.0147 47.8663 15.7183C47.845 16.4219 47.6853 17.1134 47.3971 17.7502C47.1088 18.3869 46.6982 18.9554 46.1905 19.4203Z" fill="#66B3B3"/>
<path d="M46.1904 19.4202L41.6793 24.1294L34.684 16.8469C33.8954 16.1204 33.3502 15.1508 33.1279 14.0792C32.9056 13.0077 33.0178 11.8902 33.4481 10.8897C34.4106 10.4387 35.4866 10.3203 36.5185 10.5518C37.5504 10.7833 38.484 11.3526 39.1827 12.1764C39.6307 11.6581 40.1751 11.2401 40.7829 10.9475C41.3907 10.655 42.0493 10.494 42.7187 10.4744C43.3881 10.4548 44.0543 10.577 44.677 10.8336C45.2996 11.0902 45.8657 11.4758 46.3409 11.967C46.8161 12.4582 47.1904 13.0447 47.4413 13.6911C47.6921 14.3375 47.8142 15.0302 47.8002 15.7272C47.7861 16.4242 47.6362 17.1109 47.3594 17.7457C47.0827 18.3806 46.685 18.9503 46.1904 19.4202Z" fill="#99CCCC"/>
<path d="M63.9256 46.4402C63.9256 56.6306 64.5682 59.6671 62.0717 63.1668C60.7577 65.0235 60.1026 67.297 60.2178 69.6001H41.679C41.6277 66.4242 40.7752 63.3182 39.2071 60.5935C39.2071 35.6838 38.9105 36.6488 39.9363 35.6194C40.2819 35.2617 40.7215 35.0184 41.1996 34.92C41.6777 34.8216 42.1731 34.8725 42.6235 35.0664C43.0739 35.2603 43.4592 35.5884 43.7309 36.0096C44.0027 36.4308 44.1488 36.9262 44.1508 37.4336V33.5736C44.1508 32.8912 44.4112 32.2366 44.8748 31.754C45.3383 31.2714 45.9671 31.0003 46.6226 31.0003C47.2782 31.0003 47.9069 31.2714 48.3705 31.754C48.8341 32.2366 49.0945 32.8912 49.0945 33.5736V31.0003C49.0945 30.3178 49.3549 29.6633 49.8185 29.1807C50.282 28.6981 50.9108 28.427 51.5663 28.427C52.2219 28.427 52.8506 28.6981 53.3142 29.1807C53.7778 29.6633 54.0382 30.3178 54.0382 31.0003V34.8603C54.0382 34.1778 54.2986 33.5233 54.7622 33.0407C55.2257 32.5581 55.8545 32.287 56.51 32.287C57.1656 32.287 57.7943 32.5581 58.2579 33.0407C58.7214 33.5233 58.9819 34.1778 58.9819 34.8603V46.4402C58.9791 46.1022 59.0423 45.7671 59.1676 45.4552C59.293 45.1434 59.4778 44.8613 59.7111 44.626C60.0567 44.2683 60.4962 44.025 60.9743 43.9266C61.4525 43.8282 61.9479 43.8791 62.3983 44.073C62.8487 44.2669 63.2339 44.595 63.5057 45.0162C63.7774 45.4374 63.9235 45.9328 63.9256 46.4402Z" fill="#66B3B3"/>
<path d="M63.9256 46.5816C63.9256 56.8749 64.4571 59.8856 62.1088 63.128C61.2693 64.2636 60.6902 65.5839 60.4156 66.988C56.0113 66.9815 51.7738 65.233 48.5613 62.0964C45.3487 58.9598 43.4011 54.6695 43.1127 50.0942L42.161 34.8601C42.73 34.9778 43.2412 35.3 43.605 35.7705C43.9687 36.2409 44.162 36.8296 44.1509 37.4334V33.5735C44.1509 32.891 44.4113 32.2364 44.8749 31.7539C45.3384 31.2713 45.9671 31.0001 46.6227 31.0001C47.2783 31.0001 47.907 31.2713 48.3706 31.7539C48.8341 32.2364 49.0946 32.891 49.0946 33.5735V31.0001C49.0932 30.6418 49.1637 30.2871 49.3016 29.9588C49.4395 29.6305 49.6417 29.3357 49.8953 29.0935C50.149 28.8512 50.4484 28.6668 50.7745 28.552C51.1005 28.4372 51.4461 28.3946 51.7889 28.4268C52.42 28.5094 52.9993 28.8327 53.4148 29.3342C53.8303 29.8356 54.0524 30.4796 54.0382 31.1417V34.8601C54.0355 34.5221 54.0986 34.187 54.224 33.8751C54.3493 33.5633 54.5342 33.2812 54.7674 33.0459C55.1211 32.6785 55.5735 32.4313 56.0648 32.3369C56.5562 32.2425 57.0635 32.3053 57.5198 32.5171C57.9762 32.7288 58.3602 33.0796 58.6212 33.5232C58.8822 33.9667 59.008 34.4822 58.9819 35.0017V46.4401C58.9847 45.7587 59.2469 45.1062 59.7111 44.6259C60.0648 44.2584 60.5171 44.0112 61.0085 43.9168C61.4998 43.8224 62.0071 43.8852 62.4635 44.097C62.9199 44.3088 63.3039 44.6596 63.5649 45.1031C63.8259 45.5467 63.9517 46.0621 63.9256 46.5816Z" fill="#99CCCC"/>
<path d="M60.2182 54.1601H57.7464C56.763 54.1601 55.8199 54.5668 55.1246 55.2907C54.4292 56.0146 54.0386 56.9964 54.0386 58.0201C54.0386 58.3614 53.9084 58.6886 53.6766 58.9299C53.4448 59.1712 53.1305 59.3068 52.8027 59.3068C52.4749 59.3068 52.1605 59.1712 51.9287 58.9299C51.697 58.6886 51.5668 58.3614 51.5668 58.0201C51.5668 56.3139 52.2178 54.6776 53.3767 53.4711C54.5356 52.2646 56.1074 51.5868 57.7464 51.5868H58.9823V46.0542C59.0315 45.3717 59.339 44.7375 59.8374 44.2911C60.3357 43.8447 60.984 43.6227 61.6395 43.6739C62.2951 43.7251 62.9043 44.0453 63.3331 44.564C63.7619 45.0828 63.9751 45.7577 63.926 46.4402C63.926 46.0989 63.7958 45.7717 63.564 45.5304C63.3322 45.2891 63.0178 45.1535 62.6901 45.1535C62.3623 45.1535 62.0479 45.2891 61.8161 45.5304C61.5843 45.7717 61.4541 46.0989 61.4541 46.4402V52.8735C61.4541 53.2147 61.3239 53.542 61.0921 53.7833C60.8604 54.0246 60.546 54.1601 60.2182 54.1601ZM58.9823 34.5772C58.9462 34.2359 58.7814 33.9236 58.5242 33.7088C58.2669 33.4941 57.9382 33.3945 57.6104 33.4321C57.2826 33.4696 56.9826 33.6412 56.7763 33.909C56.57 34.1768 56.4744 34.519 56.5104 34.8603V46.4402C56.5104 46.7814 56.3802 47.1087 56.1485 47.35C55.9167 47.5913 55.6023 47.7268 55.2745 47.7268C54.9467 47.7268 54.6324 47.5913 54.4006 47.35C54.1688 47.1087 54.0386 46.7814 54.0386 46.4402C54.0386 34.1912 53.7791 34.0497 54.7678 33.0461C55.0964 32.7003 55.5123 32.4586 55.9675 32.3489C56.4226 32.2392 56.8983 32.266 57.3394 32.4263C57.7805 32.5865 58.169 32.8736 58.4597 33.2543C58.7505 33.635 58.9317 34.0937 58.9823 34.5772ZM54.0386 30.7172C54.0025 30.376 53.8378 30.0636 53.5805 29.8489C53.3232 29.6341 52.9945 29.5345 52.6667 29.5721C52.3389 29.6096 52.0389 29.7812 51.8326 30.049C51.6263 30.3169 51.5307 30.659 51.5668 31.0003V46.4402C51.5668 46.7814 51.4365 47.1087 51.2048 47.35C50.973 47.5913 50.6586 47.7268 50.3308 47.7268C50.003 47.7268 49.6887 47.5913 49.4569 47.35C49.2251 47.1087 49.0949 46.7814 49.0949 46.4402C49.0949 29.4563 48.8354 30.1768 49.8241 29.1861C50.1527 28.8403 50.5686 28.5986 51.0238 28.4889C51.4789 28.3792 51.9546 28.4061 52.3957 28.5663C52.8368 28.7266 53.2253 29.0137 53.516 29.3943C53.8068 29.775 53.988 30.2337 54.0386 30.7172Z" fill="#66B3B3"/>
<path d="M49.0948 33.2905C49.0587 32.9493 48.8939 32.6369 48.6367 32.4222C48.3794 32.2074 48.0507 32.1078 47.7229 32.1454C47.3951 32.1829 47.0951 32.3545 46.8888 32.6223C46.6825 32.8902 46.5869 33.2323 46.6229 33.5736V46.4402C46.6229 46.7814 46.4927 47.1087 46.2609 47.35C46.0292 47.5913 45.7148 47.7268 45.387 47.7268C45.0592 47.7268 44.7449 47.5913 44.5131 47.35C44.2813 47.1087 44.1511 46.7814 44.1511 46.4402C44.1511 32.9045 43.8792 32.763 44.8803 31.7594C45.2089 31.4136 45.6248 31.1719 46.08 31.0622C46.5351 30.9525 47.0108 30.9794 47.4519 31.1396C47.893 31.2999 48.2815 31.587 48.5722 31.9676C48.863 32.3483 49.0442 32.807 49.0948 33.2905ZM39.2074 37.4336C39.2074 63.9773 39.5411 59.8986 38.3917 62.2918C37.3026 64.5612 36.7356 67.0632 36.7356 69.6H18.1967C18.3182 67.2962 17.6624 65.0205 16.3428 63.1667C13.7845 59.5898 14.4889 56.3603 14.4889 46.4402C14.4398 45.7577 14.653 45.0828 15.0818 44.564C15.5106 44.0452 16.1198 43.725 16.7754 43.6739C17.431 43.6227 18.0792 43.8447 18.5776 44.2911C19.0759 44.7375 19.3835 45.3717 19.4326 46.0542C19.5315 46.9934 19.4326 47.0192 19.4326 34.8602C19.4347 34.3529 19.5808 33.8574 19.8525 33.4362C20.1242 33.015 20.5095 32.6869 20.9599 32.493C21.4103 32.2991 21.9057 32.2482 22.3838 32.3466C22.862 32.445 23.3015 32.6883 23.6471 33.046C24.1113 33.5264 24.3736 34.1789 24.3763 34.8602V31.0003C24.3784 30.4929 24.5244 29.9975 24.7962 29.5763C25.0679 29.1551 25.4532 28.8269 25.9036 28.633C26.354 28.4391 26.8494 28.3882 27.3275 28.4866C27.8057 28.585 28.2452 28.8284 28.5908 29.1861C29.5054 30.1125 29.32 30.9745 29.32 33.5736C29.3221 33.0662 29.4681 32.5708 29.7399 32.1496C30.0116 31.7284 30.3969 31.4002 30.8473 31.2063C31.2977 31.0125 31.7931 30.9615 32.2712 31.0599C32.7494 31.1583 33.1889 31.4017 33.5345 31.7594C34.4862 32.7244 34.2637 33.5607 34.2637 37.4336C34.2637 36.7511 34.5241 36.0965 34.9877 35.6139C35.4513 35.1314 36.08 34.8602 36.7356 34.8602C37.3911 34.8602 38.0198 35.1314 38.4834 35.6139C38.947 36.0965 39.2074 36.7511 39.2074 37.4336Z" fill="#66B3B3"/>
<path d="M39.2071 37.4336C39.2071 63.9774 39.5408 59.8987 38.3914 62.2919C37.6754 63.7832 37.1835 65.3801 36.933 67.0268C32.1907 67.0272 27.6261 65.148 24.1666 61.7712C20.7072 58.3943 18.6123 53.7731 18.3077 48.8463L18.011 44.1114C18.4359 44.319 18.7952 44.6483 19.0468 45.0607C19.2985 45.4731 19.4323 45.9516 19.4323 46.4402V35.0018C19.4063 34.4824 19.5321 33.9669 19.7931 33.5233C20.0541 33.0798 20.4381 32.729 20.8945 32.5172C21.3508 32.3055 21.8581 32.2426 22.3495 32.337C22.8408 32.4315 23.2932 32.6787 23.6468 33.0461C24.111 33.5265 24.3733 34.1789 24.376 34.8603V31.1418C24.35 30.6224 24.4757 30.1069 24.7368 29.6634C24.9978 29.2198 25.3818 28.869 25.8381 28.6573C26.2945 28.4455 26.8018 28.3827 27.2932 28.4771C27.7845 28.5715 28.2369 28.8187 28.5905 29.1861C29.5051 30.1125 29.3197 30.9746 29.3197 33.5736C29.3218 33.0662 29.4678 32.5708 29.7396 32.1496C30.0113 31.7284 30.3966 31.4003 30.847 31.2064C31.2974 31.0125 31.7928 30.9616 32.2709 31.06C32.7491 31.1584 33.1886 31.4017 33.5342 31.7594C34.4859 32.7244 34.2634 33.5608 34.2634 37.4336C34.2634 36.7511 34.5238 36.0966 34.9874 35.614C35.451 35.1314 36.0797 34.8603 36.7353 34.8603C37.3908 34.8603 38.0196 35.1314 38.4831 35.614C38.9467 36.0966 39.2071 36.7511 39.2071 37.4336Z" fill="#99CCCC"/>
<path d="M18.1968 54.1599H20.6687C21.652 54.1599 22.5951 54.5666 23.2905 55.2905C23.9858 56.0143 24.3764 56.9961 24.3764 58.0199C24.3764 58.3611 24.5067 58.6884 24.7384 58.9297C24.9702 59.171 25.2846 59.3065 25.6124 59.3065C25.9402 59.3065 26.2545 59.171 26.4863 58.9297C26.7181 58.6884 26.8483 58.3611 26.8483 58.0199C26.8483 57.175 26.6885 56.3385 26.3779 55.5579C26.0673 54.7774 25.6122 54.0682 25.0383 53.4708C24.4645 52.8734 23.7833 52.3996 23.0335 52.0763C22.2838 51.753 21.4802 51.5866 20.6687 51.5866H19.4328V46.0539C19.3836 45.3714 19.076 44.7372 18.5777 44.2908C18.0794 43.8445 17.4311 43.6224 16.7755 43.6736C16.1199 43.7248 15.5108 44.045 15.082 44.5638C14.6532 45.0826 14.4399 45.7574 14.4891 46.4399C14.4891 46.0987 14.6193 45.7714 14.8511 45.5301C15.0828 45.2888 15.3972 45.1533 15.725 45.1533C16.0528 45.1533 16.3671 45.2888 16.5989 45.5301C16.8307 45.7714 16.9609 46.0987 16.9609 46.4399V52.8732C16.9609 53.2145 17.0911 53.5417 17.3229 53.783C17.5547 54.0243 17.869 54.1599 18.1968 54.1599Z" fill="#66B3B3"/>
<path d="M24.3761 34.5774C24.3583 34.4085 24.3086 34.2448 24.23 34.0958C24.1514 33.9468 24.0454 33.8154 23.918 33.7091C23.7906 33.6028 23.6443 33.5236 23.4876 33.4761C23.3308 33.4286 23.1665 33.4137 23.0042 33.4323C22.8419 33.4509 22.6847 33.5026 22.5416 33.5844C22.3985 33.6662 22.2723 33.7766 22.1701 33.9092C22.068 34.0419 21.9919 34.1941 21.9463 34.3573C21.9007 34.5206 21.8864 34.6915 21.9043 34.8605V46.4404C21.9043 46.7817 21.774 47.1089 21.5423 47.3502C21.3105 47.5915 20.9961 47.7271 20.6683 47.7271C20.3406 47.7271 20.0262 47.5915 19.7944 47.3502C19.5626 47.1089 19.4324 46.7817 19.4324 46.4404C19.4324 34.1914 19.1729 34.0499 20.1616 33.0463C20.4902 32.7006 20.9062 32.4588 21.3613 32.3491C21.8165 32.2394 22.2921 32.2663 22.7332 32.4265C23.1743 32.5868 23.5628 32.8739 23.8536 33.2546C24.1443 33.6353 24.3255 34.0939 24.3761 34.5774Z" fill="#66B3B3"/>
<path d="M29.3198 30.7172C29.2838 30.376 29.119 30.0636 28.8617 29.8489C28.6044 29.6341 28.2758 29.5345 27.948 29.5721C27.6202 29.6096 27.3202 29.7812 27.1139 30.049C26.9076 30.3169 26.8119 30.659 26.848 31.0003V46.4402C26.848 46.7814 26.7178 47.1087 26.486 47.35C26.2542 47.5913 25.9399 47.7268 25.6121 47.7268C25.2843 47.7268 24.9699 47.5913 24.7382 47.35C24.5064 47.1087 24.3762 46.7814 24.3762 46.4402C24.3762 29.4563 24.1166 30.1768 25.1054 29.1861C25.4339 28.8403 25.8499 28.5986 26.305 28.4889C26.7602 28.3792 27.2359 28.4061 27.677 28.5663C28.1181 28.7266 28.5065 29.0137 28.7973 29.3943C29.0881 29.775 29.2692 30.2337 29.3198 30.7172ZM34.2635 33.2905C34.2275 32.9493 34.0627 32.6369 33.8054 32.4222C33.5481 32.2074 33.2195 32.1079 32.8917 32.1454C32.5639 32.1829 32.2638 32.3545 32.0576 32.6223C31.8513 32.8902 31.7556 33.2323 31.7917 33.5736V46.4402C31.7917 46.7814 31.6615 47.1087 31.4297 47.35C31.1979 47.5913 30.8836 47.7268 30.5558 47.7268C30.228 47.7268 29.9136 47.5913 29.6818 47.35C29.4501 47.1087 29.3198 46.7814 29.3198 46.4402C29.3198 32.9045 29.0479 32.763 30.049 31.7594C30.3776 31.4137 30.7936 31.1719 31.2487 31.0622C31.7039 30.9525 32.1796 30.9794 32.6207 31.1396C33.0618 31.2999 33.4502 31.587 33.741 31.9677C34.0318 32.3483 34.2129 32.807 34.2635 33.2905ZM39.2072 37.1505C39.1712 36.8093 39.0064 36.4969 38.7491 36.2822C38.4918 36.0674 38.1631 35.9678 37.8354 36.0054C37.5076 36.0429 37.2075 36.2145 37.0012 36.4823C36.795 36.7501 36.6993 37.0923 36.7354 37.4336V46.4402C36.7354 46.7814 36.6052 47.1087 36.3734 47.35C36.1416 47.5913 35.8273 47.7268 35.4995 47.7268C35.1717 47.7268 34.8573 47.5913 34.6255 47.35C34.3938 47.1087 34.2635 46.7814 34.2635 46.4402C34.2635 36.6744 34.0287 36.5972 34.9927 35.6194C35.3213 35.2736 35.7373 35.0319 36.1924 34.9222C36.6476 34.8125 37.1233 34.8393 37.5644 34.9996C38.0055 35.1598 38.3939 35.447 38.6847 35.8276C38.9754 36.2083 39.1566 36.667 39.2072 37.1505Z" fill="#66B3B3"/>
</svg>
