<svg width="80" height="80" viewBox="0 0 80 80" fill="none" xmlns="http://www.w3.org/2000/svg">
<circle cx="40" cy="40" r="40" fill="#E6F2F2"/>
<path d="M28.7137 69.6789H44.573C44.7403 69.6789 44.9049 69.6369 45.0518 69.5568L53.9393 64.7108C56.4907 63.321 59.5994 65.1673 59.5994 68.0676C59.5994 69.4708 58.834 70.7531 57.6053 71.4244L45.052 78.2777C44.905 78.3579 44.7402 78.4 44.5728 78.4H28.7137" fill="white"/>
<path d="M28.7141 68.3429H38.1141C40.1015 68.3429 41.7398 66.7652 41.807 64.7779C41.8808 62.6832 40.209 60.9444 38.1141 60.9444H29.1283C28.8631 60.9444 28.6093 60.8371 28.4161 60.6554C23.307 55.851 15.3212 55.851 10.2121 60.6554C10.0189 60.8371 9.76513 60.9444 9.49993 60.9444H4.19983C3.64755 60.9444 3.19983 61.3921 3.19983 61.9444V77.3933C3.19983 77.9455 3.64754 78.3933 4.19983 78.3933H28.7141" fill="white"/>
<path d="M78.4 18.6011L74.4931 21.3387C74.1909 21.5505 74.0331 21.9116 74.0603 22.2797C74.388 26.7239 72.3605 31.029 68.6844 33.5995L66.5693 35.0804C66.1169 35.3972 65.4935 35.2872 65.1767 34.8349L51.6869 15.5734C51.37 15.121 51.4799 14.4974 51.9324 14.1806L67.6168 3.19995" fill="white"/>
<path d="M49.4196 9.38422L14.7557 33.6535C14.3033 33.9703 14.1933 34.5938 14.5102 35.0462L27.9979 54.3073C28.3147 54.7597 28.9383 54.8697 29.3907 54.5529L64.0546 30.2836C64.507 29.9669 64.6169 29.3433 64.3001 28.8909L50.8124 9.62983C50.4956 9.17741 49.872 9.06745 49.4196 9.38422Z" fill="#66B3B3"/>
<path d="M48.4301 14.9946L20.3667 34.6427C19.9143 34.9595 19.8043 35.5831 20.1211 36.0355L28.9873 48.6967C29.3041 49.1492 29.9277 49.2591 30.3801 48.9424L58.4435 29.2942C58.896 28.9775 59.0059 28.3539 58.6891 27.9015L49.823 15.2402C49.5062 14.7878 48.8826 14.6779 48.4301 14.9946Z" fill="#008080"/>
<path d="M43.8014 28.8865C45.5002 31.3168 44.9093 34.667 42.4854 36.3655C40.0549 38.0641 36.7044 37.4733 35.0057 35.0496C33.307 32.6193 33.8979 29.2692 36.3217 27.5706C38.7523 25.8653 42.1027 26.4561 43.8014 28.8865Z" fill="#66B3B3"/>
<path d="M63.9842 7.38259C61.0098 3.13283 55.1482 2.09892 50.8913 5.07308L32.192 18.1648C30.3725 19.4404 29.9293 21.9513 31.205 23.7774C32.4808 25.5968 34.9919 26.0399 36.8182 24.7643L47.9035 17.0033C48.1049 17.3994 48.3265 17.7888 48.5883 18.1648C51.5628 22.4145 57.4243 23.4484 61.6812 20.4743" fill="white"/>
<path d="M66.5024 38.2655C64.7702 38.8966 62.8297 37.997 62.1986 36.2581L59.9023 29.9473C59.2712 28.2151 60.1709 26.2749 61.9099 25.6438C63.6422 25.0127 65.5826 25.9123 66.2137 27.6512L68.51 33.9621C69.1412 35.6942 68.2347 37.6344 66.5024 38.2655Z" fill="#F5F5F5"/>
<path d="M60.1907 40.5617C58.4584 41.1928 56.518 40.2931 55.8868 38.5543L53.5905 32.2434C52.9594 30.5113 53.8591 28.571 55.5981 27.9399C57.3304 27.3089 59.2708 28.2085 59.902 29.9473L62.1982 36.2582C62.8294 37.9903 61.9297 39.9306 60.1907 40.5617Z" fill="white"/>
<path d="M53.886 42.8577C52.1537 43.4888 50.2133 42.5891 49.5821 40.8503L47.2858 34.5394C46.6547 32.8073 47.5544 30.8671 49.2934 30.236C51.0257 29.6049 52.9661 30.5045 53.5973 32.2434L55.8936 38.5542C56.518 40.2863 55.6183 42.2266 53.886 42.8577Z" fill="#F5F5F5"/>
<path d="M47.5743 45.1538C45.842 45.7849 43.9016 44.8853 43.2704 43.1465L40.9741 36.8356C40.343 35.1035 41.2427 33.1632 42.9817 32.5321C44.714 31.901 46.6544 32.8007 47.2856 34.5395L49.5819 40.8504C50.213 42.5825 49.3066 44.5228 47.5743 45.1538Z" fill="white"/>
</svg>
