<svg width="80" height="80" viewBox="0 0 80 80" fill="none" xmlns="http://www.w3.org/2000/svg">
<circle cx="40" cy="40" r="40" fill="#E6F2F2"/>
<g clip-path="url(#clip0_116_11343)">
<path d="M8.8 34.3377C10.4639 33.1087 12.1444 31.8992 13.7868 30.6408C14.4362 30.1429 14.9815 29.6141 14.152 28.7131C13.6348 28.1517 14.5899 26.495 15.3616 26.5162C15.5384 26.5211 15.7961 26.7969 15.8639 26.9993C16.1101 27.7273 16.3265 28.4699 16.4736 29.224C16.5182 29.4542 16.3844 29.8345 16.1993 29.9716C15.2971 30.6408 14.3734 31.292 13.4134 31.8747C11.8949 32.7953 10.34 33.6571 8.80166 34.5434C8.8 34.4748 8.8 34.4063 8.8 34.3377Z" fill="#008080"/>
<path d="M36.7019 61.5253C35.0941 62.1781 33.7689 62.7543 32.4173 63.257C30.0527 64.1352 27.6172 64.6297 25.0725 64.4355C21.0787 64.1319 18.5589 61.4175 18.7406 57.4643C18.815 55.8729 19.1554 54.293 19.3983 52.5432C19.01 52.8289 18.7142 53.0443 18.4217 53.2647C17.7872 53.7429 17.199 54.2979 16.5166 54.6912C14.6609 55.7636 12.8846 55.0976 12.1874 53.0966C11.5281 51.2032 11.6322 49.2495 12.2981 47.4312C12.9954 45.528 13.3407 43.9285 12.0799 41.9927C11.4537 41.033 11.5826 39.2277 12.0172 38.0346C12.8549 35.7348 14.1504 33.595 15.2641 31.3948C15.3169 31.2887 15.4607 31.2283 15.7449 31.2381C15.6078 31.5858 15.4822 31.9383 15.3302 32.2795C14.3867 34.4111 13.3771 36.5167 12.5145 38.6793C12.0833 39.7598 12.0105 41.0019 13.0763 41.8001C14.1256 42.5868 15.3384 42.1086 16.1712 41.4394C19.4776 38.7854 22.6815 36.009 26.0871 33.1413C24.7305 32.1195 23.6184 31.2642 22.4882 30.4351C20.816 29.2076 19.1091 28.0276 17.4584 26.774C16.3067 25.8992 15.9614 24.6766 16.5166 23.3725C16.7908 22.7294 17.3246 22.0733 17.9194 21.7077C19.3008 20.8589 20.7929 20.1848 22.2387 19.4373C22.5692 19.2659 22.8914 19.0798 23.3408 18.8317C22.3643 17.9683 21.7281 17.0363 22.3792 15.8171C22.594 15.4155 22.9046 14.9144 23.288 14.7741C27.9394 13.0798 32.6139 11.4444 37.2852 9.80075C37.4339 9.74852 37.6123 9.77953 37.7776 9.77137C37.8205 9.85298 37.8618 9.93459 37.9048 10.0162C37.533 10.2284 37.1811 10.4928 36.7845 10.643C32.7957 12.1479 28.8003 13.6348 24.8048 15.1266C24.7073 15.1625 24.6098 15.1984 24.514 15.2376C22.6254 16.0129 22.6204 16.106 23.5292 17.8867C23.8712 18.5592 24.2513 18.5314 24.8577 18.3502C29.4761 16.9694 34.0944 15.5918 38.7293 14.2665C40.0264 13.8959 41.3698 13.6723 42.7016 13.4406C43.3113 13.3345 43.9508 13.2986 44.5671 13.3524C46.3236 13.5075 47.3762 14.9944 46.7945 16.6266C46.4789 17.5129 46.0163 18.4318 45.3718 19.1043C42.9891 21.5902 40.504 23.9797 37.9758 26.335C38.6203 24.44 39.7406 22.8714 41.2128 21.5575C42.3976 20.4998 43.6616 19.5287 44.848 18.4726C46.0642 17.3921 45.9056 16.3818 44.3226 15.9786C43.2221 15.6979 41.9647 15.6685 40.8444 15.8758C33.1889 17.2958 25.9284 19.9237 18.8811 23.1505C18.3986 23.3709 17.9789 23.7267 17.3427 24.1413C17.9178 24.5346 18.2895 24.817 18.6878 25.057C21.9165 27.0058 25.1436 28.9563 28.3905 30.8774C28.7474 31.0879 29.2596 31.2903 29.6198 31.1973C30.7914 30.8953 31.948 30.5036 33.0551 30.0237C33.2798 29.9274 33.4021 29.2762 33.3426 28.9171C32.951 26.5129 32.4388 24.1266 32.0934 21.7175C31.9579 20.7708 32.1513 19.7784 32.1959 18.8072C32.3181 18.786 32.4388 18.7648 32.561 18.7452C33.374 20.1473 34.1853 21.551 34.9983 22.953C34.9289 23.0183 34.8578 23.082 34.7884 23.1473C34.4679 23.0314 34.149 22.9171 33.8268 22.7996C33.1509 24.693 34.4431 28.3589 36.1302 29.4182C36.6573 29.7495 37.2752 29.9846 37.7049 30.4089C38.0882 30.7876 38.4534 31.3507 38.4996 31.8616C38.6054 33.0221 38.2369 33.1935 37.1199 32.8311C35.3469 32.2566 33.5607 32.1113 31.796 32.761C31.7382 32.8915 31.6803 33.0221 31.6225 33.1543C35.261 35.7087 38.9012 38.2615 42.7958 40.9954C42.8768 40.2495 42.9726 39.8366 42.9594 39.4269C42.8222 35.0722 42.652 30.7174 42.5265 26.3611C42.4934 25.243 42.424 24.0858 43.3179 23.0053C44.1954 25.0635 45.1504 26.9846 45.6032 29.0852C45.5156 29.1375 45.4264 29.1913 45.3388 29.2436C44.9703 28.9106 44.6002 28.5792 44.1177 28.1434C44.083 28.4699 44.0268 28.7098 44.0384 28.9465C44.2284 32.7854 44.3986 36.6244 44.6349 40.4601C44.772 42.6847 46.5235 44.0329 48.7889 43.7669C51.0527 43.5008 51.6492 42.879 51.479 40.6363C51.0081 34.478 50.4777 28.3246 49.972 22.1696C49.7556 19.5368 49.5127 16.9041 49.3524 14.2681C49.2995 13.4047 49.4697 12.5298 49.7572 11.6174C51.0642 13.3753 51.9747 15.2523 52.515 17.2975C52.4308 17.3595 52.3465 17.4215 52.2622 17.4835C51.8409 17.0379 51.4212 16.5923 50.79 15.9231C50.9486 17.779 51.0973 19.3589 51.2179 20.9422C51.6839 27.0303 52.1598 33.1184 52.5811 39.2098C52.6522 40.2266 52.558 41.2729 52.3994 42.2832C51.9747 44.9959 50.3025 46.2707 47.515 46.0389C46.6574 45.9671 45.8114 45.7598 44.8183 45.5901C45.3305 50.5813 45.7585 55.5188 44.3044 60.3582C44.2119 60.3664 44.1177 60.3746 44.0252 60.3827C43.9839 60.0824 43.931 59.7837 43.9062 59.4817C43.8814 59.1749 43.8847 58.8648 43.8731 58.5563C43.7129 54.1346 43.5394 49.7114 43.4022 45.2897C43.3774 44.5047 43.1081 43.9742 42.4554 43.4911C39.3721 41.2043 36.3301 38.8638 33.2699 36.546C32.9163 36.2783 32.5462 36.0352 31.9926 35.9013C32.181 36.2735 32.3859 36.6374 32.5528 37.0177C33.0105 38.0493 33.6186 39.0498 33.8664 40.1303C34.5422 43.065 33.3013 45.2587 30.4807 46.3654C29.7091 46.6673 28.8779 46.8224 28.1063 47.1243C26.5282 47.7429 24.9023 48.2865 23.4218 49.0895C19.9122 50.9959 18.6233 55.5171 20.4756 59.0737C21.4076 60.8593 23.0731 61.6738 24.9552 61.8811C26.5563 62.0574 28.2368 62.0933 29.8115 61.8125C33.2418 61.2005 36.3202 59.6678 39.1209 57.6325C40.775 56.4295 40.8625 56.0574 40.228 54.1493C39.61 52.2919 38.8747 50.4704 38.3509 48.5884C38.0899 47.6515 38.1874 46.6167 38.1229 45.626C38.2584 45.5901 38.3939 45.5542 38.5294 45.5182C39.4564 46.6216 40.3833 47.725 41.469 49.0177C40.8245 49.0177 40.499 49.0177 40.0363 49.0177C40.1074 49.4029 40.1388 49.762 40.2429 50.0966C40.4974 50.9159 40.8064 51.719 41.0592 52.5384C41.887 55.2119 41.3996 57.5476 39.2267 59.4556C37.6255 60.8642 36.8655 62.6384 36.9299 64.7603C36.958 65.6874 37.1067 66.5639 38.0039 67.0715C38.959 67.6117 39.8017 67.1417 40.4858 66.5606C41.692 65.5356 42.9511 64.5155 43.9293 63.2913C46.2559 60.3811 49.1045 58.2494 52.6175 56.9633C53.1049 56.7853 53.5577 56.5128 54.0501 56.3479C54.9324 56.0509 55.2414 55.4518 55.2943 54.559C55.367 53.33 55.3885 52.0503 55.7702 50.9029C56.0858 49.9546 56.7798 49.052 57.5134 48.3371C58.181 47.6858 58.9345 47.9241 59.4186 48.7467C60.1969 50.0672 60.5587 51.4578 60.0333 52.9823C59.4781 54.5933 58.723 56.0688 57.2887 57.0808C58.414 58.4959 59.1658 58.775 60.4646 58.331C62.7052 57.5655 63.3265 56.9453 63.2372 55.1858C62.8721 48.1265 62.4656 41.0705 62.0558 34.0145C61.8228 30.0058 61.5221 26.002 61.3188 21.9933C61.2693 21.0075 61.4808 20.0102 61.5716 19.0178C61.7336 18.9982 61.8955 18.9803 62.0574 18.9607C62.8093 20.7561 63.5611 22.5532 64.3129 24.3486C64.2039 24.4204 64.0948 24.4922 63.9874 24.564C63.6074 24.2213 63.229 23.8785 62.6655 23.3709C62.8192 25.6233 62.9679 27.6832 63.1001 29.743C63.5826 37.3066 64.5806 44.849 64.2204 52.4486C64.1394 54.1706 63.8337 55.9121 63.3843 57.5802C63.0406 58.8566 62.0657 59.8245 60.8363 60.4464C58.9758 61.3898 57.3697 60.892 56.5865 58.9807C56.1734 57.9736 55.6479 57.8773 54.7457 58.2086C50.5768 59.7445 46.8309 61.8599 44.0632 65.436C43.3113 66.4088 42.4257 67.3163 41.464 68.0867C39.9389 69.3076 38.1477 68.9289 37.1034 67.2804C36.3499 66.0922 36.1814 64.7864 36.4127 63.417C36.5069 62.8539 36.5846 62.294 36.7019 61.5253ZM27.7626 34.3393C27.2702 34.6935 26.824 34.9628 26.4374 35.3007C24.2513 37.2038 22.1016 39.1478 19.8973 41.0297C18.2796 42.4105 16.7842 43.9889 14.5717 44.5014C14.3338 44.5569 14.0677 44.7854 13.9504 45.0057C12.8086 47.1407 12.1907 49.3996 12.5277 51.83C12.6649 52.8126 13.3093 53.3365 14.2842 53.1292C15.1368 52.948 16.0258 52.602 16.7198 52.0911C18.0516 51.1118 19.2793 49.9905 20.507 48.8806C22.2486 47.3071 24.2116 46.1189 26.4572 45.3958C27.7758 44.9715 29.1142 44.6058 30.4196 44.1456C31.2309 43.8599 32.0224 43.4943 32.7725 43.0781C33.5211 42.6635 33.6863 42.0253 33.2583 41.2419C31.8489 38.6597 30.1089 36.3355 27.7626 34.3393ZM56.0808 52.6477C56.1618 53.0574 56.2527 53.8098 56.4791 54.5198C56.5551 54.7581 57.0376 55.0879 57.2391 55.0324C58.7775 54.6161 59.5112 53.0819 58.9047 51.6488C58.6304 51.0024 58.295 50.3659 57.4093 50.521C56.5319 50.6744 56.0296 51.3713 56.0808 52.6477Z" fill="#008080"/>
<path d="M56.018 14.3512C56.7831 16.1401 57.5481 17.929 58.3148 19.7162C58.2438 19.7554 58.1744 19.7946 58.1033 19.8338C57.7183 19.5889 57.335 19.3457 56.6922 18.9377C57.0541 23.7429 57.3978 28.2837 57.7447 32.8832C59.0931 32.4523 59.2368 32.1455 58.6998 31.2837C57.9943 30.1509 58.3925 29.3038 59.8201 28.899C60.5951 30.1738 60.377 31.8925 59.3013 32.8277C58.4454 33.5704 58.0389 34.473 57.9612 35.6123C57.8373 37.4191 57.5911 39.2194 57.3779 41.0198C57.3432 41.3136 57.2094 41.5943 56.8657 41.8767C56.7319 39.7679 56.5964 37.6607 56.4509 35.3674C55.4727 35.7804 54.7027 36.1052 53.9311 36.43C53.8914 36.3647 53.8518 36.2994 53.8121 36.2358C54.4037 35.8114 54.982 35.3691 55.5884 34.9659C56.2279 34.5399 56.4443 34.0078 56.3948 33.2244C56.0362 27.6488 55.7173 22.0715 55.4166 16.4926C55.3802 15.8071 55.5289 15.1118 55.5934 14.4214C55.7338 14.4002 55.8759 14.3757 56.018 14.3512Z" fill="#008080"/>
<path d="M66.4726 24.5803C67.6788 26.3578 68.3265 28.2544 68.9396 30.1674C68.8107 30.2669 68.6801 30.3648 68.5513 30.4644C68.2935 30.0009 68.0374 29.5373 67.7796 29.0738C67.6507 29.1505 67.5235 29.2256 67.3946 29.3023C67.4904 31.0977 67.5879 32.8915 67.6805 34.6869C67.9217 39.4448 68.2489 44.1994 68.3513 48.9605C68.386 50.5683 67.8606 52.1874 67.5698 53.7984C67.5317 54.0073 67.3731 54.195 67.2393 54.4529C66.8212 53.0916 66.0496 25.3344 66.4726 24.5803Z" fill="#008080"/>
<path d="M57.8935 44.1864C59.9325 42.7501 60.2085 42.7011 60.9058 43.6266C61.4973 44.4117 61.3502 44.7773 59.9738 45.8578C59.3691 45.4514 58.7478 45.0319 58.0637 44.5716C57.5118 45.0841 56.9682 45.5901 56.3617 46.1532C55.8578 45.6244 55.3935 45.1364 54.8845 44.6026C55.367 43.9971 55.8065 43.4438 56.3006 42.8219C56.8789 43.3165 57.3912 43.7539 57.8935 44.1864Z" fill="#008080"/>
<path d="M29.9867 50.423C30.3882 50.0639 30.7848 49.7 31.1929 49.3474C32.8139 47.9519 34.4431 46.5629 36.0624 45.1641C36.7267 44.5912 36.9431 43.9873 36.5383 43.0814C36.3185 42.5885 36.4226 41.7919 36.6887 41.2925C37.0224 40.6657 37.6404 40.8502 37.8668 41.5553C38.0915 42.2555 38.3642 42.9443 38.5162 43.6576C38.5575 43.8534 38.2849 44.1799 38.075 44.3463C37.6735 44.6663 37.1232 44.836 36.7911 45.2049C34.8628 47.3529 32.5693 49.0438 30.1916 50.6385C30.1255 50.5667 30.0561 50.4948 29.9867 50.423Z" fill="#008080"/>
<path d="M26.2292 57.2507C26.254 57.3127 26.2871 57.36 26.2771 57.3747C25.9268 57.866 25.5716 58.354 25.218 58.8421C24.8743 58.3034 24.2976 57.7877 24.2398 57.2197C24.1439 56.2877 24.3819 55.3214 24.481 54.3682C24.5157 54.0401 24.5537 53.7137 24.6149 53.1783C23.7061 53.606 22.9807 53.9455 22.2569 54.2866C22.1941 54.1805 22.1313 54.0728 22.0686 53.9667C23.9374 52.2659 26.2623 51.2409 28.4285 49.9808C28.5128 50.0853 28.5971 50.1881 28.6813 50.2926C28.1542 50.7333 27.685 51.2752 27.0918 51.5983C25.4675 52.4797 24.8611 53.9046 24.8164 55.5989C24.7983 56.3138 25.0626 57.0352 25.2312 57.9313C25.7071 57.6032 25.9648 57.4286 26.2292 57.2507Z" fill="#008080"/>
<path d="M53.3627 52.8126C51.631 53.3936 49.8977 53.9747 48.166 54.5557C48.1214 54.4921 48.0768 54.4301 48.0322 54.3664C48.3032 54.0351 48.5758 53.7037 48.7394 53.503C48.6039 52.8485 48.1974 52.0732 48.4271 51.7777C49.055 50.9698 49.9225 50.33 50.7619 49.7114C50.9122 49.6004 51.3815 49.9121 51.7021 50.0296C51.4327 50.2222 51.1733 50.4328 50.8875 50.5977C50.7834 50.658 50.5801 50.5617 50.4826 50.627C50.0596 50.9127 49.6581 51.2309 49.25 51.5362C49.6597 51.7728 50.053 52.1646 50.4859 52.2152C51.3898 52.3213 52.3168 52.2478 53.2338 52.2478C53.2768 52.4355 53.3197 52.6232 53.3627 52.8126Z" fill="#008080"/>
<path d="M56.2475 64.2559C54.6777 63.1509 54.5125 63.2015 53.9672 64.7489C53.6648 65.609 53.3806 66.4741 53.0072 67.5807C52.6949 66.967 52.5511 66.5051 52.2653 66.1575C51.7993 65.5911 51.2458 65.0949 50.7187 64.5808C50.5485 64.4159 50.2378 64.3212 50.175 64.1335C50.0346 63.7108 50.0081 63.2505 49.9338 62.8066C50.3188 62.9192 50.8145 62.9192 51.0673 63.164C51.8224 63.892 52.4834 64.7179 53.2666 65.6009C53.3608 65.3381 53.4434 65.0704 53.5492 64.8109C53.8301 64.1172 54.0713 63.4023 54.4282 62.7494C54.6017 62.4328 55.0016 62.2369 55.299 61.9872C55.5733 62.3169 55.9203 62.614 56.1021 62.9894C56.2475 63.2913 56.193 63.6863 56.2475 64.2559Z" fill="#008080"/>
<path d="M27.5428 28.15C27.3098 27.7469 27.1413 27.2833 26.8273 26.9553C26.3118 26.4183 25.6707 26.0004 25.1403 25.4748C24.8445 25.1827 24.6148 24.7959 24.4529 24.4107C24.3934 24.2687 24.6396 23.828 24.7073 23.8361C25.0576 23.8769 25.4757 23.9324 25.7236 24.1462C26.3647 24.7028 26.9281 25.3459 27.6585 26.0935C27.9361 24.9868 28.0964 24.0842 28.4053 23.2355C28.5508 22.8356 29.1423 22.1974 29.2629 22.2512C29.8925 22.5353 30.0544 23.1082 29.7487 23.8443C29.4315 23.7055 29.1605 23.5897 28.7028 23.3905C28.4219 25.008 28.1509 26.5717 27.8782 28.1353C27.7675 28.1435 27.6552 28.1468 27.5428 28.15Z" fill="#008080"/>
<path d="M32.6437 54.7989C32.2273 55.2119 31.877 55.8272 31.3779 55.9806C30.8095 56.1553 29.4595 54.8022 29.5752 54.3044C29.719 53.689 29.8693 52.9643 30.7352 52.9709C31.4639 52.9758 32.4999 54.0187 32.6437 54.7989Z" fill="#008080"/>
<path d="M43.8285 11.7349C44.2102 11.4933 44.5919 11.2518 44.9753 11.0086C44.9505 10.9025 44.9241 10.7947 44.8993 10.6886C44.1408 10.7229 43.3824 10.7556 42.6339 10.7898C43.2271 9.77951 44.9009 9.27516 45.8824 9.82521C46.4112 10.1223 46.6111 10.5646 46.0625 10.9416C45.4132 11.3889 44.6646 11.6941 43.9591 12.0613C43.9145 11.9536 43.8715 11.8442 43.8285 11.7349Z" fill="#008080"/>
<path d="M36.0509 50.4769C36.0426 52.0912 35.0363 53.4704 36.3004 54.7778C36.5945 54.5591 36.8275 54.3844 37.0803 54.1967C37.0307 54.972 36.8969 55.8191 35.993 55.7767C35.1586 55.7375 35.0462 54.8871 35.0214 54.1837C34.9768 52.935 35.223 51.7549 36.0509 50.4769Z" fill="#008080"/>
<path d="M48.6237 34.6478C48.3957 35.4966 48.1429 36.3404 47.9446 37.1973C47.7463 38.0542 47.776 38.81 49.1954 38.9487C48.8716 39.3143 48.5477 39.6815 48.2222 40.0472C47.933 39.7191 47.4357 39.4122 47.3977 39.0564C47.315 38.2828 47.3729 37.4634 47.5497 36.7028C47.7232 35.9569 48.1164 35.2599 48.4122 34.5417C48.4833 34.5793 48.5543 34.6136 48.6237 34.6478Z" fill="#008080"/>
<path d="M19.3933 31.6381C19.2066 32.6402 18.9439 33.6359 18.8563 34.6462C18.772 35.6092 19.048 35.7496 20.0113 35.4492C20.089 35.5129 20.1666 35.5782 20.2443 35.6418C19.8824 36.0385 19.5189 36.4351 19.157 36.8317C18.8018 36.298 18.0995 35.7251 18.1557 35.2371C18.3011 33.9803 18.7803 32.7594 19.1256 31.5238C19.2149 31.5613 19.3041 31.6005 19.3933 31.6381Z" fill="#008080"/>
<path d="M70.6894 35.6271C70.6101 37.2152 69.1411 38.6777 70.3424 40.4437C70.6167 40.2837 70.8249 40.1646 71.2 39.9459C70.9753 40.4943 70.8596 40.8909 70.6547 41.2369C70.5308 41.4459 70.1954 41.7495 70.0797 41.7038C69.8384 41.6075 69.5344 41.3251 69.508 41.09C69.2849 39.1494 69.6484 37.3148 70.6894 35.6271Z" fill="#008080"/>
<path d="M55.1439 47.0085C54.1327 47.5667 53.3379 48.0074 52.5415 48.4465C52.4787 48.3567 52.4175 48.2669 52.3564 48.1772C52.6324 47.9927 52.91 47.8099 53.1859 47.6255C53.1562 47.5324 53.1248 47.441 53.095 47.348C52.4985 47.2925 51.902 47.2387 51.2559 47.1799C51.9698 46.23 53.4965 46.1075 55.1439 47.0085Z" fill="#008080"/>
<path d="M40.96 32.5586C40.7105 33.4041 40.3767 34.2349 40.2379 35.0983C40.1371 35.7316 40.1553 36.5428 41.2889 36.0303C41.269 36.2327 41.2971 36.3731 41.2409 36.4253C40.8972 36.7534 40.5337 37.0618 40.1768 37.3752C39.9686 36.9329 39.577 36.4889 39.5853 36.0515C39.6133 34.7392 40.0413 33.5249 40.96 32.5586Z" fill="#008080"/>
<path d="M39.4018 17.309C38.9408 18.5021 38.4798 19.6952 37.9263 21.1267C38.5922 21.0239 38.8681 20.9814 39.3275 20.9112C39.0548 21.3813 38.8929 21.7926 38.6087 22.0848C38.4997 22.1974 38.0453 22.124 37.8618 21.9869C37.6702 21.8432 37.5148 21.5184 37.5198 21.2785C37.5595 19.6985 38.3278 18.4352 39.4018 17.309Z" fill="#008080"/>
<path d="M47.472 21.6097C47.6339 22.669 46.4822 24.0156 48.4601 24.7811C48.0239 25.2299 47.7017 25.5629 47.3795 25.8942C47.1217 25.4911 46.6293 25.0765 46.6524 24.6897C46.7136 23.6369 46.9912 22.5956 47.1828 21.5493C47.2787 21.5689 47.3745 21.5901 47.472 21.6097Z" fill="#008080"/>
<path d="M10.5102 44.0036C10.0889 43.8551 9.83934 43.7653 9.54192 43.6608C9.69889 42.9867 10.036 42.4726 10.7085 42.7174C10.9332 42.799 11.1067 43.6494 10.953 43.9987C10.4953 45.0319 9.86413 45.99 9.30067 46.9775C9.21145 46.9301 9.12222 46.8812 9.03299 46.8338C9.50887 45.9198 9.98475 45.0074 10.5102 44.0036Z" fill="#008080"/>
<path d="M54.3409 24.6179C53.9873 24.8954 53.632 25.1745 53.2784 25.4519C53.0421 25.0406 52.601 24.6228 52.6142 24.2213C52.6439 23.3611 52.9116 22.5091 53.3082 21.6848C53.3082 22.5613 53.3082 23.4362 53.3082 24.3975C53.6486 24.3975 53.908 24.3975 54.1691 24.3975C54.2252 24.471 54.2831 24.5444 54.3409 24.6179Z" fill="#008080"/>
<path d="M16.201 59.9861C15.8093 58.9415 17.465 57.9508 15.7052 57.0302C15.9465 56.8082 16.1497 56.5307 16.424 56.4018C16.6372 56.3006 17.009 56.2908 17.1825 56.4149C17.3427 56.5291 17.4452 56.9176 17.3741 57.1151C17.0189 58.083 16.5992 59.0296 16.201 59.9861Z" fill="#008080"/>
<path d="M17.6451 17.0004C17.7558 18.089 16.2869 19.2724 17.9492 20.5667C17.769 20.7577 17.4964 21.0499 17.1891 21.3763C16.2836 20.1538 16.5959 18.1282 17.6451 17.0004Z" fill="#008080"/>
<path d="M46.198 66.0546C46.3732 65.7608 46.4608 65.5193 46.6276 65.3609C46.7863 65.2108 47.1085 65.0133 47.2159 65.0753C47.4125 65.1896 47.6075 65.4752 47.6224 65.6988C47.6967 66.8299 47.1548 67.695 46.1633 68.6123C46.5566 67.7276 46.8491 67.0699 47.1713 66.3452C46.7549 66.2211 46.5021 66.1444 46.198 66.0546Z" fill="#008080"/>
<path d="M11.6768 27.6179C11.7726 27.9966 11.8668 28.3753 11.9792 28.8225C12.2188 28.7621 12.4583 28.7001 12.6963 28.6397C12.7492 28.7033 12.8037 28.7654 12.8566 28.829C12.4517 29.1963 12.0469 29.5619 11.6437 29.9291C11.5595 29.8867 11.4752 29.8459 11.3909 29.8034C11.3909 29.0804 11.3909 28.3573 11.3909 27.6359C11.4868 27.6293 11.5809 27.6244 11.6768 27.6179Z" fill="#008080"/>
<path d="M28.5871 43.0111C27.8733 42.4856 27.2107 41.9975 26.4704 41.4524C25.9433 42.0171 25.436 42.559 24.8709 43.1646C24.1637 42.6455 23.4763 42.1428 22.8071 41.6515C23.3921 39.6961 23.8349 39.6211 26.2688 40.9986C26.8207 40.5171 27.3065 39.9083 27.941 39.6292C28.1955 39.5166 28.8201 40.0764 29.2001 40.4143C29.9652 41.0933 29.833 41.6319 28.5871 43.0111Z" fill="#008080"/>
<path d="M18.7539 43.5611C18.6613 44.8098 17.2072 46.0274 18.7076 47.3544C18.9108 47.2303 19.1389 47.0916 19.4065 46.9284C19.3107 47.7265 19.0331 48.51 18.2648 48.4381C17.389 48.3565 17.5625 47.4262 17.6484 46.8402C17.817 45.6928 18.1359 44.5666 18.392 43.4305C18.5126 43.4746 18.6332 43.5187 18.7539 43.5611Z" fill="#008080"/>
</g>
<defs>
<clipPath id="clip0_116_11343">
<rect width="62.4" height="59.2" fill="white" transform="translate(8.8 9.59998)"/>
</clipPath>
</defs>
</svg>
