<svg width="85" height="85" viewBox="0 0 85 85" fill="none" xmlns="http://www.w3.org/2000/svg">
<circle cx="42.5" cy="42.5" r="42.5" fill="#E6F2F2"/>
<path d="M57.7995 28.8988H30.5995V66.2988H57.7995V28.8988Z" fill="#99CCCC"/>
<path d="M47.5043 57.7979H39.4613V45.794C39.4613 43.6121 41.2643 41.8389 43.4828 41.8389C45.7013 41.8389 47.5043 43.6121 47.5043 45.794V57.7979Z" fill="#66B3B3"/>
<path d="M43.4838 10.1998C43.4838 12.1642 27.3979 14.88 27.3979 23.3835C27.3979 25.3808 28.1888 28.2812 30.0789 29.9753H43.4838H56.8888C58.7789 28.2812 59.5697 25.3808 59.5697 23.3835C59.5697 14.88 43.4838 12.1642 43.4838 10.1998Z" fill="#008080"/>
<path d="M27.3979 23.3835C27.3979 25.3808 28.1888 28.2812 30.0789 29.9753H35.4409C34.154 28.2812 32.5186 25.3808 32.5186 23.3835C32.5186 14.88 43.4838 12.1642 43.4838 10.1998C43.4838 12.1642 27.3979 14.88 27.3979 23.3835Z" fill="#66B3B3"/>
<path d="M43.4846 10.1998C43.4846 12.1642 54.4499 14.88 54.4499 23.3835C54.4499 25.3808 52.8145 28.2812 51.5276 29.9753H56.8896C58.7797 28.2812 59.5705 25.3808 59.5705 23.3835C59.5705 14.88 43.4846 12.1642 43.4846 10.1998Z" fill="#006666"/>
<path d="M72.9737 48.4336H56.8878V66.8907H72.9737V48.4336Z" fill="#66B3B3"/>
<path d="M64.9324 32.6121C64.9324 34.1809 54.2084 36.3562 54.2084 43.159C54.2084 44.7542 55.6294 47.0812 56.8894 48.4325H64.9324H72.9754C74.2354 47.0812 75.6563 44.7542 75.6563 43.159C75.6563 36.3562 64.9324 34.1809 64.9324 32.6121Z" fill="#008080"/>
<path d="M54.2084 43.159C54.2084 44.7542 55.6294 47.0812 56.8894 48.4325H59.5704C58.7125 47.0812 57.62 44.7542 57.62 43.159C57.62 36.3562 64.9324 34.1809 64.9324 32.6121C64.9324 34.1809 54.2084 36.3562 54.2084 43.159Z" fill="#66B3B3"/>
<path d="M64.9322 32.6121C64.9322 34.1809 72.2446 36.3562 72.2446 43.159C72.2446 44.7542 71.1521 47.0812 70.2942 48.4325H72.9752C74.2352 47.0812 75.6561 44.7542 75.6561 43.159C75.6561 36.3562 64.9322 34.1809 64.9322 32.6121Z" fill="#006666"/>
<path d="M30.6678 48.1218H14.5818V66.579H30.6678V48.1218Z" fill="#66B3B3"/>
<path d="M22.624 32.3002C22.624 33.869 11.9 36.0443 11.9 42.8471C11.9 44.4423 13.3209 46.7693 14.581 48.1206H22.624H30.667C31.927 46.7693 33.3479 44.4423 33.3479 42.8471C33.3479 36.0443 22.624 33.869 22.624 32.3002Z" fill="#008080"/>
<path d="M11.9 42.8471C11.9 44.4423 13.3209 46.7693 14.581 48.1206H17.262C16.4041 46.7693 15.3116 44.4423 15.3116 42.8471C15.3116 36.0443 22.624 33.869 22.624 32.3002C22.624 33.869 11.9 36.0443 11.9 42.8471Z" fill="#66B3B3"/>
<path d="M22.6243 32.3002C22.6243 33.869 29.9367 36.0443 29.9367 42.8471C29.9367 44.4423 28.8442 46.7693 27.9863 48.1206H30.6673C31.9274 46.7693 33.3483 44.4423 33.3483 42.8471C33.3483 36.0443 22.6243 33.869 22.6243 32.3002Z" fill="#006666"/>
</svg>
