<svg width="80" height="80" viewBox="0 0 80 80" fill="none" xmlns="http://www.w3.org/2000/svg">
<circle cx="40" cy="40" r="40" fill="#E6F2F2"/>
<g clip-path="url(#clip0_116_11493)">
<path d="M53.4243 24.5233C53.4243 28.3966 51.7565 31.8966 49.1022 34.3C47.8103 35.5133 46.2835 36.4466 44.6157 37.0533C43.2768 37.5666 41.797 37.8466 40.2702 37.87H39.9883C38.3675 37.87 36.8172 37.59 35.3843 37.0533C33.6931 36.4466 32.1663 35.5133 30.8743 34.3C28.2435 31.8966 26.5757 28.3966 26.5757 24.5233C26.5757 22.6566 26.9516 20.8833 27.6563 19.2733C29.7233 22.3766 34.4682 24.5233 39.9883 24.5233H40.2702C45.6962 24.4533 50.3002 22.33 52.3203 19.2733C53.025 20.8833 53.4243 22.6566 53.4243 24.5233Z" fill="white"/>
<path d="M52.3203 19.2733C50.3002 22.33 45.6962 24.4533 40.2701 24.5233H39.9883C34.4682 24.5233 29.7233 22.3766 27.6562 19.2733C29.7233 14.5366 34.4682 11.2 39.9883 11.2C40.0822 11.2 40.1762 11.2 40.2701 11.2233C45.6962 11.3166 50.3002 14.6066 52.3203 19.2733Z" fill="#006666"/>
<path d="M60.8 57.19V67.2H19.2V57.19C19.2 49.0467 23.9449 42 30.8508 38.64C32.2602 37.94 33.787 37.4033 35.3843 37.0533C36.8172 37.59 38.3675 37.87 39.9883 37.87H40.2701C41.797 37.8467 43.2768 37.5667 44.6157 37.0533C46.1895 37.4033 47.7163 37.94 49.1492 38.64C51.2163 39.6433 53.0954 40.9967 54.7162 42.5833C58.4745 46.3167 60.8 51.4967 60.8 57.19Z" fill="#66B3B3"/>
<path d="M49.1492 38.64C48.2801 42.42 45.109 45.3133 41.1627 45.78C40.8574 45.85 40.5755 45.85 40.2701 45.85C40.1762 45.8733 40.0822 45.8733 39.9883 45.8733C39.5889 45.8733 39.1896 45.85 38.8138 45.78C34.891 45.3133 31.7199 42.42 30.8508 38.64C32.2602 37.94 33.787 37.4033 35.3843 37.0533C36.8172 37.59 38.3675 37.87 39.9883 37.87H40.2701C41.797 37.8467 43.2768 37.5667 44.6157 37.0533C46.1895 37.4033 47.7163 37.94 49.1492 38.64Z" fill="#008080"/>
<path d="M41.1627 45.78V67.2H38.8138V45.78C38.8608 45.1733 39.354 44.7067 39.9883 44.7067C40.0822 44.7067 40.1762 44.7067 40.2701 44.7767C40.7634 44.8467 41.1158 45.2667 41.1627 45.78Z" fill="#008080"/>
<g opacity="0.2">
<path opacity="0.2" d="M60.8 57.1899V67.1999H40.2701V11.2233C45.6962 11.3166 50.3002 14.6066 52.3203 19.2733C53.025 20.8833 53.4243 22.6566 53.4243 24.5233C53.4243 28.3966 51.7565 31.8966 49.1022 34.2999C47.8103 35.5133 46.2835 36.4466 44.6157 37.0533C46.1895 37.4033 47.7163 37.9399 49.1492 38.6399C51.2163 39.6433 53.0954 40.9966 54.7162 42.5833C58.4745 46.3166 60.8 51.4966 60.8 57.1899Z" fill="white"/>
</g>
</g>
<defs>
<clipPath id="clip0_116_11493">
<rect width="41.6" height="56" fill="white" transform="translate(19.2 11.2)"/>
</clipPath>
</defs>
</svg>
