<svg width="33" height="32" viewBox="0 0 33 32" fill="none" xmlns="http://www.w3.org/2000/svg">
<rect x="0.280518" y="0.869263" width="30.4158" height="30.4158" rx="5" fill="#A5E9E9"/>
<g clip-path="url(#clip0_30_10779)">
<path d="M32.5454 20.095L20.0454 23.22V7.59503L32.5454 4.47003V20.095Z" fill="#66B3B3"/>
<path d="M32.5454 20.095L20.0454 23.22V23.6665V25.0057V25.4522L32.5454 28.5772V26.7915L22.724 24.3361L32.5454 21.8807V20.095Z" fill="#006666"/>
<path d="M7.54541 20.095L20.0454 23.22V23.6665V25.0057V25.4522L7.54541 28.5772V26.7915L17.3668 24.3361L7.54541 21.8807V20.095Z" fill="#006666"/>
<path d="M7.54541 24.5593V26.7915L17.3668 24.3361L12.9026 23.22L7.54541 24.5593Z" fill="#008080"/>
<path d="M32.5454 24.5593V26.7915L22.724 24.3361L27.1883 23.22L32.5454 24.5593Z" fill="#008080"/>
<path d="M7.54541 20.095L20.0454 23.22V7.59503L7.54541 4.47003V20.095Z" fill="#66B3B3"/>
<path d="M11.1168 3.57715L9.33113 5.04367V18.7557H9.54095C13.2106 18.7557 16.8222 19.6776 20.0454 21.4343V7.59501" fill="#B3D9D9"/>
<path d="M28.974 3.57715L30.7597 5.04367V18.7557H30.5499C26.8802 18.7557 23.2686 19.6776 20.0454 21.4343V7.59501" fill="#B3D9D9"/>
<path d="M11.1168 16.97C14.5253 16.97 17.7686 18.4276 20.032 20.9745L20.0454 20.9879V7.59501L20.032 7.58161C17.7686 5.03474 14.5253 3.57715 11.1168 3.57715V16.97Z" fill="white"/>
<path d="M28.974 16.97C25.5655 16.97 22.3222 18.4276 20.0588 20.9745L20.0454 20.9879V7.59501L20.0588 7.58161C22.3222 5.03474 25.5655 3.57715 28.974 3.57715V16.97Z" fill="white"/>
<path d="M22.2776 15.6263C22.1749 15.6263 22.0722 15.5905 21.9874 15.5191C21.7999 15.3584 21.7776 15.0794 21.9383 14.8941C23.0476 13.6151 24.6325 12.8852 26.2932 12.8852C26.5387 12.8852 26.7396 13.0861 26.7396 13.3316C26.7396 13.5772 26.5387 13.778 26.2932 13.778C24.8914 13.778 23.5521 14.3964 22.6191 15.4722C22.532 15.5727 22.4048 15.6263 22.2776 15.6263Z" fill="#99CCCC"/>
<path d="M22.2776 12.5347C22.1749 12.5347 22.0744 12.5013 21.9896 12.4298C21.8021 12.2714 21.7753 11.9946 21.9338 11.8071L21.9383 11.8004C23.0476 10.5214 24.6325 9.79144 26.2932 9.79144C26.5387 9.79144 26.7396 9.99234 26.7396 10.2379C26.7396 10.4834 26.5387 10.6843 26.2932 10.6843C24.8914 10.6843 23.5521 11.3026 22.6191 12.3785C22.532 12.4812 22.4048 12.5347 22.2776 12.5347Z" fill="#99CCCC"/>
<path d="M22.2776 9.44545C22.1749 9.44545 22.0722 9.40974 21.9874 9.33831C21.7999 9.1776 21.7776 8.89858 21.9383 8.71331L21.9428 8.70661C23.0477 7.43206 24.6347 6.70215 26.2955 6.70215C26.541 6.70215 26.7419 6.90304 26.7419 7.14858C26.7419 7.39411 26.541 7.59501 26.2955 7.59501C24.8937 7.59501 23.5544 8.21331 22.6214 9.2892C22.5321 9.39188 22.4048 9.44545 22.2776 9.44545Z" fill="#99CCCC"/>
<path d="M17.8133 15.6307C17.9159 15.6307 18.0186 15.595 18.1034 15.5236C18.2909 15.3629 18.3133 15.0838 18.1526 14.8986C17.0432 13.6196 15.4584 12.8896 13.7976 12.8896C13.5521 12.8896 13.3512 13.0905 13.3512 13.3361C13.3512 13.5816 13.5521 13.7825 13.7976 13.7825C15.1994 13.7825 16.5387 14.4008 17.4717 15.4767C17.5588 15.5772 17.686 15.6307 17.8133 15.6307Z" fill="#99CCCC"/>
<path d="M17.8133 12.5392C17.9159 12.5392 18.0164 12.5057 18.1012 12.4343C18.2887 12.2758 18.3155 11.999 18.157 11.8115L18.1526 11.8048C17.0432 10.5258 15.4584 9.7959 13.7976 9.7959C13.5521 9.7959 13.3512 9.99679 13.3512 10.2423C13.3512 10.4879 13.5521 10.6888 13.7976 10.6888C15.1994 10.6888 16.5387 11.3071 17.4717 12.383C17.5588 12.4879 17.686 12.5392 17.8133 12.5392Z" fill="#99CCCC"/>
<path d="M17.8133 9.44993C17.9159 9.44993 18.0186 9.41422 18.1034 9.34279C18.2909 9.18208 18.3133 8.90306 18.1526 8.71779L18.1481 8.71109C17.0454 7.43877 15.4584 6.70886 13.7976 6.70886C13.5521 6.70886 13.3512 6.90976 13.3512 7.15529C13.3512 7.40083 13.5521 7.60172 13.7976 7.60172C15.1994 7.60172 16.5387 8.22002 17.4717 9.29592C17.5588 9.39636 17.686 9.44993 17.8133 9.44993Z" fill="#99CCCC"/>
<path d="M20.0454 25.8986C20.7851 25.8986 21.3847 25.299 21.3847 24.5593C21.3847 23.8197 20.7851 23.22 20.0454 23.22C19.3057 23.22 18.7061 23.8197 18.7061 24.5593C18.7061 25.299 19.3057 25.8986 20.0454 25.8986Z" fill="#006666"/>
<path d="M20.0454 25.0057C20.292 25.0057 20.4918 24.8058 20.4918 24.5593C20.4918 24.3127 20.292 24.1129 20.0454 24.1129C19.7989 24.1129 19.599 24.3127 19.599 24.5593C19.599 24.8058 19.7989 25.0057 20.0454 25.0057Z" fill="#1A8D8D"/>
</g>
<defs>
<clipPath id="clip0_30_10779">
<rect width="25" height="25" fill="white" transform="translate(7.54541 3.57715)"/>
</clipPath>
</defs>
</svg>
