<svg width="85" height="85" viewBox="0 0 85 85" fill="none" xmlns="http://www.w3.org/2000/svg">
<path d="M42.5 85C65.9721 85 85 65.9721 85 42.5C85 19.0279 65.9721 0 42.5 0C19.0279 0 0 19.0279 0 42.5C0 65.9721 19.0279 85 42.5 85Z" fill="#E6F2F2"/>
<g clip-path="url(#clip0_116_11437)">
<path d="M74.8 52.8821L42.5 60.9571V20.5821L74.8 12.5071V52.8821Z" fill="#66B3B3"/>
<path d="M74.8 52.8821L42.5 60.9571V62.1107V65.5714V66.7249L74.8 74.7999V70.1857L49.4214 63.841L74.8 57.4964V52.8821Z" fill="#006666"/>
<path d="M10.2 52.8821L42.5 60.9571V62.1107V65.5714V66.7249L10.2 74.7999V70.1857L35.5786 63.841L10.2 57.4964V52.8821Z" fill="#006666"/>
<path d="M10.2 64.4177V70.1856L35.5786 63.841L24.0429 60.957L10.2 64.4177Z" fill="#008080"/>
<path d="M74.8 64.4177V70.1856L49.4214 63.841L60.9572 60.957L74.8 64.4177Z" fill="#008080"/>
<path d="M10.2 52.8821L42.5 60.9571V20.5821L10.2 12.5071V52.8821Z" fill="#66B3B3"/>
<path d="M19.4286 10.2L14.8143 13.9894V49.4214H15.3565C24.8388 49.4214 34.1712 51.8035 42.5 56.3428V20.5821" fill="#B3D9D9"/>
<path d="M65.5714 10.2L70.1857 13.9894V49.4214H69.6435C60.1612 49.4214 50.8288 51.8035 42.5 56.3428V20.5821" fill="#B3D9D9"/>
<path d="M19.4286 44.8071C28.2361 44.8071 36.6168 48.5735 42.4654 55.1546L42.5 55.1892V20.5821L42.4654 20.5475C36.6168 13.9664 28.2361 10.2 19.4286 10.2V44.8071Z" fill="white"/>
<path d="M65.5714 44.8071C56.7639 44.8071 48.3832 48.5735 42.5346 55.1546L42.5 55.1892V20.5821L42.5346 20.5475C48.3832 13.9664 56.7639 10.2 65.5714 10.2V44.8071Z" fill="white"/>
<path d="M48.2678 41.3348C48.0025 41.3348 47.7372 41.2425 47.518 41.0579C47.0335 40.6426 46.9758 39.9216 47.3911 39.4429C50.2578 36.1379 54.3529 34.2518 58.6442 34.2518C59.2787 34.2518 59.7978 34.7709 59.7978 35.4054C59.7978 36.0399 59.2787 36.559 58.6442 36.559C55.022 36.559 51.5613 38.1567 49.1503 40.9368C48.9254 41.1963 48.5966 41.3348 48.2678 41.3348Z" fill="#99CCCC"/>
<path d="M48.2679 33.3463C48.0025 33.3463 47.743 33.2597 47.5238 33.0752C47.0393 32.6657 46.9701 31.9504 47.3796 31.4659L47.3912 31.4486C50.2578 28.1437 54.353 26.2576 58.6442 26.2576C59.2787 26.2576 59.7978 26.7767 59.7978 27.4111C59.7978 28.0456 59.2787 28.5647 58.6442 28.5647C55.022 28.5647 51.5613 30.1624 49.1503 32.9425C48.9254 33.2078 48.5966 33.3463 48.2679 33.3463Z" fill="#99CCCC"/>
<path d="M48.268 25.3636C48.0026 25.3636 47.7373 25.2713 47.5181 25.0867C47.0336 24.6715 46.976 23.9505 47.3913 23.4717L47.4028 23.4544C50.2579 20.161 54.3588 18.2749 58.6501 18.2749C59.2846 18.2749 59.8037 18.794 59.8037 19.4285C59.8037 20.0629 59.2846 20.582 58.6501 20.582C55.0279 20.582 51.5672 22.1797 49.1562 24.9598C48.9255 25.2252 48.5967 25.3636 48.268 25.3636Z" fill="#99CCCC"/>
<path d="M36.7322 41.3464C36.9975 41.3464 37.2628 41.2541 37.482 41.0695C37.9665 40.6542 38.0242 39.9332 37.6089 39.4545C34.7422 36.1495 30.6471 34.2634 26.3558 34.2634C25.7213 34.2634 25.2022 34.7825 25.2022 35.417C25.2022 36.0515 25.7213 36.5706 26.3558 36.5706C29.978 36.5706 33.4387 38.1683 35.8497 40.9484C36.0746 41.2079 36.4034 41.3464 36.7322 41.3464Z" fill="#99CCCC"/>
<path d="M36.7322 33.3579C36.9975 33.3579 37.257 33.2713 37.4762 33.0868C37.9607 32.6773 38.0299 31.962 37.6204 31.4775L37.6089 31.4602C34.7422 28.1553 30.6471 26.2692 26.3558 26.2692C25.7213 26.2692 25.2022 26.7883 25.2022 27.4227C25.2022 28.0572 25.7213 28.5763 26.3558 28.5763C29.978 28.5763 33.4387 30.174 35.8497 32.9541C36.0746 33.2252 36.4034 33.3579 36.7322 33.3579Z" fill="#99CCCC"/>
<path d="M36.7322 25.3752C36.9975 25.3752 37.2628 25.2829 37.482 25.0983C37.9665 24.683 38.0242 23.962 37.6089 23.4833L37.5973 23.466C34.748 20.1783 30.6471 18.2922 26.3558 18.2922C25.7213 18.2922 25.2022 18.8113 25.2022 19.4458C25.2022 20.0803 25.7213 20.5994 26.3558 20.5994C29.978 20.5994 33.4387 22.1971 35.8497 24.9772C36.0746 25.2367 36.4034 25.3752 36.7322 25.3752Z" fill="#99CCCC"/>
<path d="M42.5 67.8785C44.4113 67.8785 45.9607 66.3291 45.9607 64.4177C45.9607 62.5064 44.4113 60.957 42.5 60.957C40.5887 60.957 39.0393 62.5064 39.0393 64.4177C39.0393 66.3291 40.5887 67.8785 42.5 67.8785Z" fill="#006666"/>
<path d="M42.5 65.5714C43.1371 65.5714 43.6536 65.0549 43.6536 64.4179C43.6536 63.7808 43.1371 63.2643 42.5 63.2643C41.8629 63.2643 41.3464 63.7808 41.3464 64.4179C41.3464 65.0549 41.8629 65.5714 42.5 65.5714Z" fill="#1A8D8D"/>
</g>
<defs>
<clipPath id="clip0_116_11437">
<rect width="64.6" height="64.6" fill="white" transform="translate(10.2 10.2)"/>
</clipPath>
</defs>
</svg>
