<svg width="80" height="80" viewBox="0 0 80 80" fill="none" xmlns="http://www.w3.org/2000/svg">
<path d="M40 80C62.0914 80 80 62.0914 80 40C80 17.9086 62.0914 0 40 0C17.9086 0 0 17.9086 0 40C0 62.0914 17.9086 80 40 80Z" fill="#E6F2F2"/>
<g clip-path="url(#clip0_116_11308)">
<path d="M33.8857 51.8286C32.3703 54.8643 32.516 58.4198 34.182 61.2903C34.8086 62.3686 35.8286 65.4286 35.8286 65.4286L33.8857 76.1143H30.9714C29.048 76.1143 27.5569 77.9795 28.2126 80H37.7714V76.1143L39.7143 65.4286V51.8286" fill="#006666"/>
<path d="M49.4286 51.8286H46.5143C44.9989 54.8643 45.1446 58.4198 46.8106 61.2903C47.4372 62.3686 48.4572 65.4286 48.4572 65.4286L46.5143 76.1143H43.6C41.6766 76.1143 40.1854 77.9795 40.8412 80H50.4V76.1143L52.3429 65.4286V51.8286H49.4286Z" fill="#006666"/>
<path d="M63.0286 56.6857C62.4943 56.6857 62.0571 56.2534 62.0571 55.7143V47.9428C62.0571 46.3351 60.7506 45.0286 59.1429 45.0286H55.2571C54.7228 45.0286 54.2857 44.5963 54.2857 44.0571C54.2857 43.518 54.7228 43.0857 55.2571 43.0857H59.1429C61.8191 43.0857 64 45.2666 64 47.9428V55.7143C64 56.2534 63.5629 56.6857 63.0286 56.6857Z" fill="#006666"/>
<path d="M23.5302 29.816C24.9698 28.3763 25.5542 26.6265 24.8353 25.9076C24.1164 25.1887 22.3665 25.773 20.9268 27.2127C19.4871 28.6524 18.9028 30.4022 19.6217 31.1211C20.3406 31.84 22.0905 31.2557 23.5302 29.816Z" fill="#006666"/>
<path d="M56.0974 41.478L52.9597 34.1535C52.3963 32.8372 51.5317 31.6812 50.4049 31.0206C49.108 30.2629 47.816 30.2629 46.5191 31.0206C45.3874 31.6812 44.5277 32.8323 43.9643 34.1535L43.1143 36.1255L42.2691 34.1583C41.7057 32.842 40.8411 31.686 39.7143 31.0255C38.4174 30.2678 37.1254 30.2678 35.8286 31.0255C34.6969 31.686 33.8371 32.8372 33.2737 34.1583L30.3789 40.9146C29.0286 41.852 27.8871 42.9158 27.0226 44.062C24.3754 44.0572 22.2286 41.9103 22.2286 39.2632V35.3143H22.2043C23.0057 34.2506 23.404 32.8712 23.0883 31.3703C22.6803 29.4566 21.092 27.9266 19.1589 27.6109C17.2451 27.2952 15.516 28.116 14.4814 29.4858H12.6794C11.1009 29.4858 9.68743 30.666 9.60486 32.2446C9.51743 33.9252 10.8531 35.3143 12.5143 35.3143H14.4814C14.7534 35.6738 15.0691 35.9943 15.4286 36.2615V41.5509C15.4286 47.2192 20.446 51.814 26.1143 51.7995C26.1191 51.814 26.1289 51.8286 26.1337 51.848L26.1143 51.8286C24.5989 54.8643 24.7446 58.4198 26.4106 61.2903C27.0371 62.3686 28.0571 65.4286 28.0571 65.4286L26.1143 76.1143H23.2C21.2766 76.1143 19.7854 77.9795 20.4411 80H30V76.1143L31.9429 65.4286V58.0215C34.8231 59.6146 38.5049 60.5715 42.6286 60.5715C46.6989 60.5715 50.4389 59.634 53.4114 58.0798C53.6251 59.2552 54.0429 60.3966 54.6743 61.4409C55.2377 62.3735 56.2286 65.4286 56.2286 65.4286L54.2857 76.1143H51.3714C49.448 76.1143 47.9569 77.9795 48.6126 80H58.1714V76.1143L60.1143 65.4286V48.9143C60.1143 46.0875 58.6037 43.4986 56.0974 41.478Z" fill="#66B3B3"/>
</g>
<defs>
<clipPath id="clip0_116_11308">
<rect width="54.4" height="54.4" fill="white" transform="translate(9.60001 25.6)"/>
</clipPath>
</defs>
</svg>
