<svg width="85" height="85" viewBox="0 0 85 85" fill="none" xmlns="http://www.w3.org/2000/svg">
<circle cx="42.5" cy="42.5" r="42.5" fill="#E6F2F2"/>
<g clip-path="url(#clip0_116_11382)">
<path d="M42.925 77.35C61.9374 77.35 77.35 61.9374 77.35 42.925C77.35 23.9126 61.9374 8.5 42.925 8.5C23.9126 8.5 8.5 23.9126 8.5 42.925C8.5 61.9374 23.9126 77.35 42.925 77.35Z" fill="#008080"/>
<path d="M42.925 72.4321C59.2214 72.4321 72.4321 59.2213 72.4321 42.925C72.4321 26.6286 59.2214 13.4178 42.925 13.4178C26.6287 13.4178 13.4179 26.6286 13.4179 42.925C13.4179 59.2213 26.6287 72.4321 42.925 72.4321Z" fill="white"/>
<path d="M42.925 44.1544C42.2426 44.1544 41.6955 43.6073 41.6955 42.9249V23.2535C41.6955 22.5712 42.2426 22.024 42.925 22.024C43.6073 22.024 44.1545 22.5712 44.1545 23.2535V42.9249C44.1545 43.6073 43.6073 44.1544 42.925 44.1544Z" fill="#66B3B3"/>
<path d="M50.3018 56.4491C49.8838 56.4491 49.478 56.234 49.2444 55.8529L41.8677 43.5582C41.5173 42.9742 41.7078 42.2181 42.2918 41.8738C42.8758 41.5234 43.6319 41.714 43.9762 42.298L51.353 54.5927C51.7034 55.1766 51.5128 55.9328 50.9288 56.277C50.7382 56.3938 50.5169 56.4491 50.3018 56.4491Z" fill="#66B3B3"/>
<path d="M42.925 19.5651C43.604 19.5651 44.1545 19.0147 44.1545 18.3357C44.1545 17.6567 43.604 17.1062 42.925 17.1062C42.246 17.1062 41.6955 17.6567 41.6955 18.3357C41.6955 19.0147 42.246 19.5651 42.925 19.5651Z" fill="#C3855C"/>
<path d="M42.925 19.5714C43.604 19.5714 44.1545 19.0209 44.1545 18.3419C44.1545 17.6629 43.604 17.1124 42.925 17.1124C42.246 17.1124 41.6955 17.6629 41.6955 18.3419C41.6955 19.0209 42.246 19.5714 42.925 19.5714Z" fill="#99CCCC"/>
<path d="M42.925 68.7437C43.604 68.7437 44.1545 68.1933 44.1545 67.5143C44.1545 66.8352 43.604 66.2848 42.925 66.2848C42.246 66.2848 41.6955 66.8352 41.6955 67.5143C41.6955 68.1933 42.246 68.7437 42.925 68.7437Z" fill="#C3855C"/>
<path d="M42.925 68.7437C43.604 68.7437 44.1545 68.1933 44.1545 67.5143C44.1545 66.8352 43.604 66.2848 42.925 66.2848C42.246 66.2848 41.6955 66.8352 41.6955 67.5143C41.6955 68.1933 42.246 68.7437 42.925 68.7437Z" fill="#99CCCC"/>
<path d="M18.3357 44.1545C19.0147 44.1545 19.5652 43.604 19.5652 42.925C19.5652 42.246 19.0147 41.6956 18.3357 41.6956C17.6567 41.6956 17.1062 42.246 17.1062 42.925C17.1062 43.604 17.6567 44.1545 18.3357 44.1545Z" fill="#C3855C"/>
<path d="M18.3357 44.1545C19.0147 44.1545 19.5652 43.604 19.5652 42.925C19.5652 42.246 19.0147 41.6956 18.3357 41.6956C17.6567 41.6956 17.1062 42.246 17.1062 42.925C17.1062 43.604 17.6567 44.1545 18.3357 44.1545Z" fill="#99CCCC"/>
<path d="M67.5143 44.1545C68.1933 44.1545 68.7437 43.604 68.7437 42.925C68.7437 42.246 68.1933 41.6956 67.5143 41.6956C66.8353 41.6956 66.2848 42.246 66.2848 42.925C66.2848 43.604 66.8353 44.1545 67.5143 44.1545Z" fill="#C3855C"/>
<path d="M67.5143 44.1606C68.1933 44.1606 68.7437 43.6101 68.7437 42.9311C68.7437 42.2521 68.1933 41.7017 67.5143 41.7017C66.8353 41.7017 66.2848 42.2521 66.2848 42.9311C66.2848 43.6101 66.8353 44.1606 67.5143 44.1606Z" fill="#99CCCC"/>
<path d="M21.6307 31.8598C22.3097 31.8598 22.8601 31.3094 22.8601 30.6303C22.8601 29.9513 22.3097 29.4009 21.6307 29.4009C20.9517 29.4009 20.4012 29.9513 20.4012 30.6303C20.4012 31.3094 20.9517 31.8598 21.6307 31.8598Z" fill="#C3855C"/>
<path d="M21.6307 31.8598C22.3097 31.8598 22.8601 31.3094 22.8601 30.6303C22.8601 29.9513 22.3097 29.4009 21.6307 29.4009C20.9517 29.4009 20.4012 29.9513 20.4012 30.6303C20.4012 31.3094 20.9517 31.8598 21.6307 31.8598Z" fill="#99CCCC"/>
<path d="M64.2193 56.4492C64.8983 56.4492 65.4488 55.8987 65.4488 55.2197C65.4488 54.5407 64.8983 53.9902 64.2193 53.9902C63.5403 53.9902 62.9899 54.5407 62.9899 55.2197C62.9899 55.8987 63.5403 56.4492 64.2193 56.4492Z" fill="#C3855C"/>
<path d="M64.2193 56.4492C64.8983 56.4492 65.4488 55.8987 65.4488 55.2197C65.4488 54.5407 64.8983 53.9902 64.2193 53.9902C63.5403 53.9902 62.9899 54.5407 62.9899 55.2197C62.9899 55.8987 63.5403 56.4492 64.2193 56.4492Z" fill="#99CCCC"/>
<path d="M30.6304 65.4488C31.3094 65.4488 31.8598 64.8983 31.8598 64.2193C31.8598 63.5403 31.3094 62.9899 30.6304 62.9899C29.9513 62.9899 29.4009 63.5403 29.4009 64.2193C29.4009 64.8983 29.9513 65.4488 30.6304 65.4488Z" fill="#C3855C"/>
<path d="M30.6304 65.4488C31.3094 65.4488 31.8598 64.8983 31.8598 64.2193C31.8598 63.5403 31.3094 62.9899 30.6304 62.9899C29.9513 62.9899 29.4009 63.5403 29.4009 64.2193C29.4009 64.8983 29.9513 65.4488 30.6304 65.4488Z" fill="#99CCCC"/>
<path d="M21.6307 56.4492C22.3097 56.4492 22.8601 55.8987 22.8601 55.2197C22.8601 54.5407 22.3097 53.9902 21.6307 53.9902C20.9517 53.9902 20.4012 54.5407 20.4012 55.2197C20.4012 55.8987 20.9517 56.4492 21.6307 56.4492Z" fill="#C3855C"/>
<path d="M21.6307 56.4492C22.3097 56.4492 22.8601 55.8987 22.8601 55.2197C22.8601 54.5407 22.3097 53.9902 21.6307 53.9902C20.9517 53.9902 20.4012 54.5407 20.4012 55.2197C20.4012 55.8987 20.9517 56.4492 21.6307 56.4492Z" fill="#99CCCC"/>
<path d="M64.2193 31.8598C64.8983 31.8598 65.4488 31.3094 65.4488 30.6303C65.4488 29.9513 64.8983 29.4009 64.2193 29.4009C63.5403 29.4009 62.9899 29.9513 62.9899 30.6303C62.9899 31.3094 63.5403 31.8598 64.2193 31.8598Z" fill="#C3855C"/>
<path d="M64.2193 31.8598C64.8983 31.8598 65.4488 31.3094 65.4488 30.6303C65.4488 29.9513 64.8983 29.4009 64.2193 29.4009C63.5403 29.4009 62.9899 29.9513 62.9899 30.6303C62.9899 31.3094 63.5403 31.8598 64.2193 31.8598Z" fill="#99CCCC"/>
<path d="M55.2196 65.4488C55.8987 65.4488 56.4491 64.8983 56.4491 64.2193C56.4491 63.5403 55.8987 62.9899 55.2196 62.9899C54.5406 62.9899 53.9902 63.5403 53.9902 64.2193C53.9902 64.8983 54.5406 65.4488 55.2196 65.4488Z" fill="#C3855C"/>
<path d="M55.2196 65.4488C55.8987 65.4488 56.4491 64.8983 56.4491 64.2193C56.4491 63.5403 55.8987 62.9899 55.2196 62.9899C54.5406 62.9899 53.9902 63.5403 53.9902 64.2193C53.9902 64.8983 54.5406 65.4488 55.2196 65.4488Z" fill="#99CCCC"/>
<path d="M30.6304 22.8602C31.3094 22.8602 31.8598 22.3097 31.8598 21.6307C31.8598 20.9517 31.3094 20.4012 30.6304 20.4012C29.9513 20.4012 29.4009 20.9517 29.4009 21.6307C29.4009 22.3097 29.9513 22.8602 30.6304 22.8602Z" fill="#C3855C"/>
<path d="M30.6304 22.8602C31.3094 22.8602 31.8598 22.3097 31.8598 21.6307C31.8598 20.9517 31.3094 20.4012 30.6304 20.4012C29.9513 20.4012 29.4009 20.9517 29.4009 21.6307C29.4009 22.3097 29.9513 22.8602 30.6304 22.8602Z" fill="#99CCCC"/>
<path d="M55.2196 22.8602C55.8987 22.8602 56.4491 22.3097 56.4491 21.6307C56.4491 20.9517 55.8987 20.4012 55.2196 20.4012C54.5406 20.4012 53.9902 20.9517 53.9902 21.6307C53.9902 22.3097 54.5406 22.8602 55.2196 22.8602Z" fill="#99CCCC"/>
</g>
<defs>
<clipPath id="clip0_116_11382">
<rect width="68.85" height="68.85" fill="white" transform="translate(8.5 8.5)"/>
</clipPath>
</defs>
</svg>
