<svg width="85" height="81" viewBox="0 0 85 81" fill="none" xmlns="http://www.w3.org/2000/svg">
<circle cx="39.7205" cy="40.5" r="39.7205" fill="#E6F2F2"/>
<path d="M32.4029 69.0987C40.1136 69.0987 46.3644 62.8528 46.3644 55.1481C46.3644 47.4434 40.1136 41.1975 32.4029 41.1975C24.6921 41.1975 18.4413 47.4434 18.4413 55.1481C18.4413 62.8528 24.6921 69.0987 32.4029 69.0987Z" fill="#66B3B3"/>
<path d="M32.4026 66.3086C38.5712 66.3086 43.5718 61.3119 43.5718 55.1482C43.5718 48.9844 38.5712 43.9877 32.4026 43.9877C26.234 43.9877 21.2334 48.9844 21.2334 55.1482C21.2334 61.3119 26.234 66.3086 32.4026 66.3086Z" fill="#008080"/>
<path d="M46.3645 20.2089L36.1517 30.4138C34.7904 31.7739 32.5775 31.7739 31.2163 30.4138C29.855 29.0536 29.855 26.8424 31.2163 25.4822L41.4291 15.2773L46.3645 20.2089Z" fill="#EDEDED"/>
<path d="M39.3833 20.8994L29.8616 30.4138C28.5003 31.7739 26.2874 31.7739 24.9262 30.4138C23.5649 29.0536 23.5649 26.8424 24.9262 25.4822L34.4479 15.9679L39.3833 20.8994Z" fill="#F5F5F5"/>
<path d="M79.6459 18.2077C79.5235 17.7779 79.1309 17.4815 78.6841 17.4815H61.9875C61.8136 17.4815 61.6427 17.4361 61.4916 17.3499L52.1795 12.0328C52.0285 11.9466 51.8576 11.9012 51.6836 11.9012H30.0246C29.7595 11.9012 29.5053 12.0065 29.3178 12.1939L17.0453 24.4568C15.5025 25.9983 15.5025 28.4955 17.0453 30.037C18.588 31.5786 21.0871 31.5786 22.6299 30.037L32.1101 20.5642C32.2976 20.3769 32.5518 20.2716 32.8169 20.2716H41.6956C41.9992 20.2716 42.2864 20.4096 42.4762 20.6466L47.2007 26.5477C47.5194 26.9457 47.4876 27.5197 47.1269 27.88L39.6765 35.3247C39.489 35.512 39.2348 35.6173 38.9697 35.6173H30.3087C28.382 35.6173 26.8183 37.1797 26.8183 39.1049C26.8183 41.0301 28.382 42.5926 30.3087 42.5926H51.6836C51.8576 42.5926 52.0285 42.5472 52.1795 42.461L61.4916 37.1439C61.6427 37.0577 61.8136 37.0123 61.9875 37.0123H83.6755C84.3395 37.0123 84.8191 36.3771 84.6373 35.7385L79.6459 18.2077Z" fill="white"/>
<path d="M28.48 59.6498L26.0103 54.0524L28.809 52.8175C29.4696 52.5261 30.033 52.4852 30.4993 52.6948C30.9656 52.9044 31.3278 53.3018 31.5861 53.887C31.7522 54.2637 31.8024 54.6361 31.7364 55.0044C31.6705 55.3727 31.503 55.6993 31.2341 55.9841C31.3434 56.012 31.4391 56.0563 31.5212 56.117C31.6066 56.1693 31.7089 56.2522 31.8282 56.3657L33.1561 57.5866L31.6959 58.2308L30.4412 57.0815C30.3353 56.9829 30.2303 56.9253 30.1262 56.909C30.0195 56.8868 29.8908 56.909 29.7402 56.9755L29.097 57.2593L29.8793 59.0323L28.48 59.6498ZM28.6215 56.1815L29.6558 55.7251C29.9281 55.605 30.1102 55.445 30.2021 55.2453C30.2972 55.0372 30.2834 54.7941 30.1606 54.516C29.9126 53.9539 29.5192 53.7918 28.9803 54.0295L27.8852 54.5127L28.6215 56.1815ZM34.749 59.1266L32.103 53.1294L33.3198 52.5925L33.5466 52.9182C33.6532 52.705 33.7943 52.5147 33.9696 52.3473C34.1424 52.1742 34.3679 52.0262 34.646 51.9035C35.2313 51.6453 35.7651 51.6001 36.2476 51.768C36.7275 51.93 37.1311 52.3819 37.4584 53.1236C37.783 53.8595 37.8517 54.4937 37.6645 55.0263C37.483 55.5563 37.0851 55.9568 36.4709 56.2278C36.0364 56.4196 35.6259 56.4934 35.2395 56.4493L36.1484 58.5092L34.749 59.1266ZM35.6621 55.3595C36.2647 55.0936 36.3845 54.5492 36.0214 53.7264C35.8476 53.3324 35.6605 53.0966 35.46 53.0188C35.2596 52.9411 35.0058 52.97 34.6987 53.1055C34.4032 53.2359 34.1885 53.4553 34.0546 53.7636L34.7908 55.4324C34.9367 55.4649 35.0749 55.4801 35.2055 55.4778C35.3418 55.4731 35.494 55.4336 35.6621 55.3595Z" fill="#99CCCC"/>
</svg>
